<?xml version="1.0" standalone="no"?>
<!DOCTYPE svg PUBLIC "-//W3C//DTD SVG 1.1//EN" "http://www.w3.org/Graphics/SVG/1.1/DTD/svg11.dtd" >
<!--
2013-9-30: Created.
-->
<svg>
<metadata>
Created by iconfont
</metadata>
<defs>

<font id="bomi" horiz-adv-x="1024" >
  <font-face
    font-family="bomi"
    font-weight="500"
    font-stretch="normal"
    units-per-em="1024"
    ascent="896"
    descent="-128"
  />
    <missing-glyph />
    
    <glyph glyph-name="volume-d" unicode="&#59982;" d="M917.44 119.67999999999995L800 226.55999999999995V832a32 32 0 0 1-53.44 23.68L416 576 213.44 759.6800000000001a32 32 0 1 1-42.88-47.36l704-640a32 32 0 0 1 42.88 47.36zM416 192l330.56-279.68A32 32 0 0 1 800-64v117.44L416 402.56zM192 576a96 96 0 0 1-96-96v-192a96 96 0 0 1 96-96h160v268.8L224 576z"  horiz-adv-x="1024" />

    
    <glyph glyph-name="volume" unicode="&#59983;" d="M682.56 855.68L352 576v-384l330.56-279.68A32 32 0 0 1 736-64V832a32 32 0 0 1-53.44 23.68zM832 192a32 32 0 0 0-32 32V544a32 32 0 0 0 64 0v-320a32 32 0 0 0-32-32zM960 128a32 32 0 0 0-32 32V608a32 32 0 0 0 64 0v-448a32 32 0 0 0-32-32zM288 576H128a96 96 0 0 1-96-96v-192a96 96 0 0 1 96-96h160z"  horiz-adv-x="1024" />

    
    <glyph glyph-name="chart" unicode="&#58995;" d="M480.2-62.700000000000045c-228.1 0-413.5 185.5-413.5 413.5 0.7 183.3 121.3 344.6 297 396.9 17.8 4.1 35.7-6.4 40.9-24 5.1-17.6-4.3-36.1-21.5-42.2-146.4-43.6-246.9-178-247.5-330.7 0-190 154.6-344.6 344.6-344.6 151.6-0.6 285.5 98.4 329.4 243.4 5.6 18.2 24.9 28.5 43.1 22.9 18.2-5.6 28.5-24.9 22.9-43.1C823 55.299999999999955 662.1-63.5 480.2-62.700000000000045z m445.7 412.3c-9.1 0-17.9 3.6-24.4 10.1s-10.1 15.2-10.1 24.4c0 209-170.1 379.1-379.1 379.1-19 0-34.5 15.4-34.5 34.5 0 19 15.4 34.5 34.5 34.5 247 0 448-201 448-448 0-19.2-15.4-34.6-34.4-34.6z m0 0M512.4 832.1c-19 0-34.5-15.4-34.5-34.5v-413.5c0-19 15.4-34.5 34.5-34.5 19 0 34.5 15.4 34.5 34.5V797.6c-0.1 19-15.5 34.5-34.5 34.5z m0 0M925.9 418.5H512.4c-19 0-34.5-15.4-34.5-34.5 0-19 15.4-34.5 34.5-34.5h413.5c19 0 34.5 15.4 34.5 34.5-0.1 19.1-15.5 34.5-34.5 34.5z m0 0"  horiz-adv-x="1024" />

    
    <glyph glyph-name="device" unicode="&#58936;" d="M512 704c141.152 0 256-114.848 256-256s-114.848-256-256-256-256 114.848-256 256 114.848 256 256 256m0 64c-176.736 0-320-143.264-320-320s143.264-320 320-320 320 143.264 320 320S688.736 768 512 768zM822.496 222.44799999999998c5.984-9.776 9.504-19.936 9.504-30.448 0-70.688-143.264-128-320-128s-320 57.312-320 128c0 10.512 3.52 20.672 9.504 30.448a384.608 384.608 0 0 0-35.296 58.656C134.624 247.63199999999995 128 213.96799999999996 128 192c0-35.984 17.408-103.312 133.952-149.936C329.776 14.94399999999996 418.576 0 512 0s182.224 14.944 250.048 42.064C878.592 88.68799999999999 896 156.01599999999996 896 192c0 21.968-6.624 55.632-38.208 89.12a384.768 384.768 0 0 0-35.296-58.672zM512 640c-106.032 0-192-85.968-192-192s85.968-192 192-192 192 85.968 192 192-85.968 192-192 192z m-80-176a64 64 0 1 0 0 128 64 64 0 0 0 0-128z"  horiz-adv-x="1024" />

    
    <glyph glyph-name="shape" unicode="&#58918;" d="M620.606061 896a62.060606 62.060606 0 0 0 62.060606-62.060606v-188.943515C874.945939 622.002424 1024 458.348606 1024 259.878788c0-214.217697-173.661091-387.878788-387.878788-387.878788-198.469818 0-362.123636 149.054061-385.117091 341.333333H62.060606a62.060606 62.060606 0 0 0-62.060606 62.060606V833.939394a62.060606 62.060606 0 0 0 62.060606 62.060606h558.545455z m62.060606-297.937455V275.39393900000005a62.060606 62.060606 0 0 0-62.060606-62.060606H297.937455C320.636121 46.84024199999999 463.39103-81.45454500000005 636.121212-81.45454500000005c188.509091 0 341.333333 152.824242 341.333333 341.333333 0 172.730182-128.294788 315.485091-294.787878 338.183757zM620.606061 849.454545H62.060606a15.515152 15.515152 0 0 1-15.406545-13.699878L46.545455 833.939394v-558.545455a15.515152 15.515152 0 0 1 13.699878-15.406545L62.060606 259.878788h186.181818c0 214.217697 173.661091 387.878788 387.878788 387.878788V833.939394a15.515152 15.515152 0 0 1-13.699879 15.406545L620.606061 849.454545z m15.515151-248.242424c-188.509091 0-341.333333-152.824242-341.333333-341.333333h325.818182a15.515152 15.515152 0 0 1 15.406545 13.699879L636.121212 275.39393900000005V601.212121z"  horiz-adv-x="1024" />

    
    <glyph glyph-name="flip-h" unicode="&#58930;" d="M453.5-31.200000000000045H102.3c-12.2 0-23.4 6.1-30 16.4-6.6 10.3-7.4 23.1-2.3 34.1l351.2 756.8c7.1 15.3 23.5 23.4 40 19.8 16.4-3.6 27.9-17.9 27.9-34.8v-756.8c0-19.5-15.9-35.5-35.6-35.5z m-336 45.3h326.3V717.2L117.5 14.100000000000023zM569.1-8.600000000000023h351.2c9.5 0 15.7 9.8 11.7 18.4L580.9 766.6c-5.8 12.6-24.7 8.4-24.7-5.4v-756.8c0-7.2 5.8-13 12.9-13zM920.3-31.200000000000045H569.1c-19.6 0-35.6 16-35.6 35.6V761.2c0 16.8 11.5 31.1 27.9 34.8 16.4 3.6 32.9-4.5 40-19.8l351.2-756.8c5.1-11.1 4.3-23.8-2.3-34.1-6.5-10.4-17.8-16.5-30-16.5z m-341.5 45.3h326.3L578.8 717.2v-703.1z"  horiz-adv-x="1024" />

    
    <glyph glyph-name="flip-v" unicode="&#58931;" d="M892.2 406.5H130.5c-16.9 0-31.3 11.6-35 28.1-3.7 16.5 4.5 33.1 19.9 40.2L877.1 828.3c11.2 5.2 24 4.3 34.4-2.3 10.4-6.6 16.5-17.9 16.5-30.2v-353.5c0-19.7-16.1-35.8-35.8-35.8z m-717.4 45.6h707.6V780.5L174.8 452.1zM905.2 326v-353.5c0-9.5-9.9-15.8-18.5-11.8L125 314.20000000000005c-12.7 5.9-8.5 24.8 5.5 24.8h761.7c7.2 0.1 13-5.8 13-13zM892.2-63.299999999999955c-5.1 0-10.3 1.1-15.1 3.4L115.4 293.5c-15.4 7.1-23.6 23.7-19.9 40.2 3.7 16.5 18 28.1 35 28.1h761.7c19.8 0 35.8-16.1 35.8-35.8v-353.5c0-12.3-6.2-23.6-16.5-30.2-5.9-3.7-12.6-5.6-19.3-5.6zM174.8 316.29999999999995l707.6-328.4V316.29999999999995H174.8z"  horiz-adv-x="1024" />

    
    <glyph glyph-name="save" unicode="&#58882;" d="M608 576c17.664 0 32 14.304 32 32v128c0 17.696-14.336 32-32 32s-32-14.304-32-32v-128c0-17.696 14.336-32 32-32v0zM960 0c0-35.328-28.672-64-64-64h-768c-35.328 0-64 28.672-64 64v768c0 35.328 28.672 64 64 64h64v-320c0-35.328 28.672-64 64-64h512c35.328 0 64 28.672 64 64v320h64c35.328 0 64-28.672 64-64v-768zM256 832h512v-288c0-17.696-14.336-32-32-32h-448c-17.664 0-32 14.304-32 32v288zM896 896h-768c-70.688 0-128-57.312-128-128v-768c0-70.688 57.312-128 128-128h768c70.688 0 128 57.312 128 128v768c0 70.688-57.312 128-128 128v0z"  horiz-adv-x="1024" />

    
    <glyph glyph-name="align-top" unicode="&#59156;" d="M64 832h896v-64H64zM192-64V704h256v-768zM576 192V704h256v-512z"  horiz-adv-x="1024" />

    
    <glyph glyph-name="arrange" unicode="&#59622;" d="M386.133333-8.53333299999997c-12.8 0-21.333333 8.533333-21.333333 21.333333v661.333333L192 501.333333c-8.533333-8.533333-21.333333-8.533333-29.866667 0-8.533333 8.533333-8.533333 21.333333 0 29.866667l209.066667 211.2c6.4 4.266667 14.933333 6.4 23.466667 4.266667 8.533333-4.266667 12.8-10.666667 12.8-19.2v-714.666667c0-12.8-8.533333-21.333333-21.333334-21.333333z m266.666667 0c-2.133333 0-6.4 0-8.533333 2.133333-8.533333 4.266667-12.8 10.666667-12.8 19.2V727.466667c0 12.8 8.533333 21.333333 21.333333 21.333333s21.333333-8.533333 21.333333-21.333333V64l172.8 172.8c8.533333 8.533333 21.333333 8.533333 29.866667 0 8.533333-8.533333 8.533333-21.333333 0-29.866667l-209.066667-211.2c-4.266667-2.133333-8.533333-4.266667-14.933333-4.266666z"  horiz-adv-x="1024" />

    
    <glyph glyph-name="run" unicode="&#58909;" d="M397.568 64H0V832h960v-400.512a349.184 349.184 0 0 1-64 41.728V768H64v-512h333.568a352.128 352.128 0 0 1-11.968-64H64v-64h321.6c1.984-22.016 6.08-43.328 11.968-64zM256 0v-64h208.448a352.512 352.512 0 0 0-41.728 64H256z m235.84-28.032l45.248-45.248 90.496 90.496-45.248 45.248-90.496-90.496z m361.984 271.488l90.496 90.496-45.248 45.248-90.496-90.496 45.248-45.248zM491.84 333.952l90.496-90.496 45.248 45.248-90.496 90.496-45.248-45.248z m316.736-316.736l90.496-90.496 45.248 45.248-90.496 90.496-45.248-45.248zM704-128h64v128h-64v-128z m0 448h64V448h-64v-128z m-128-128H448v-64h128v64z m320 0v-64h128v64h-128z"  horiz-adv-x="1024" />

    
    <glyph glyph-name="move-up" unicode="&#58880;" d="M56.889 384h341.333v-56.889H56.89z m512 0h341.333v-56.889H568.89zM512 731.0219999999999l136.533-130.844L688.356 640l-204.8 199.111L284.444 640l39.823-39.822L455.11 731.0219999999999v-517.689H56.89v-227.555h853.333V213.33299999999997H512v517.69z m341.333-574.578v-113.777H113.778V156.44399999999996h739.555z"  horiz-adv-x="1024" />

    
    <glyph glyph-name="move-down" unicode="&#58881;" d="M56.889 839.111v-227.555H455.11v-517.69L324.267 224.712l-39.823-39.822 199.112-199.111 204.8 199.11-39.823 39.823L512 93.86699999999996V611.556h398.222V839.11H56.89z m796.444-170.667H113.778V782.222h739.555v-113.778zM56.889 497.778h341.333v-56.89H56.89z m512 0h341.333v-56.89H568.89z"  horiz-adv-x="1024" />

    
    <glyph glyph-name="move-bottom" unicode="&#58906;" d="M818.1 14.200000000000045h-602c-17.7 0-32-14.3-32-32s14.3-32 32-32h602c17.7 0 32 14.3 32 32 0 17.6-14.3 32-32 32zM820.3 454.4H677.1V757.6c0 35.3-28.7 64-64 64h-192c-35.3 0-64-28.7-64-64v-303.3H214c-25.7 0-39.5-30-22.8-49.5l303.2-353c12-13.9 33.5-13.9 45.5 0l303.1 353c16.7 19.5 2.9 49.6-22.7 49.6z"  horiz-adv-x="1024" />

    
    <glyph glyph-name="jurassic_VerTop-fenbu" unicode="&#59131;" d="M64 832h896v-64H64zM64 320h896v-64H64zM320 704h384v-192H320zM192 192h640v-256H192z"  horiz-adv-x="1024" />

    
    <glyph glyph-name="align-left-right" unicode="&#59142;" d="M128 0h768v-64H128zM128 128h768v-64H128zM128 256h768v-64H128zM128 384h768v-64H128zM0 832h64v-896H0zM960 832h64v-896h-64zM440.2 448l-128 128h399.6l-128-128H768l192 192L768 832H583.8l128-128H312.2l128 128H256L64 640l192-192z"  horiz-adv-x="1024" />

    
    <glyph glyph-name="align-h-center" unicode="&#59143;" d="M480 832h64v-896h-64zM256 704h512v-256H256zM128 320h768v-256H128z"  horiz-adv-x="1024" />

    
    <glyph glyph-name="h-center" unicode="&#59144;" d="M765 832v-896h-64V832zM352 832v-896h-64V832zM832 576v-384H640V576zM448 704v-640H192V704z"  horiz-adv-x="1024" />

    
    <glyph glyph-name="align-right" unicode="&#59145;" d="M896 832h64v-896h-64zM320 704h512v-256H320zM64 320h768v-256H64z"  horiz-adv-x="1024" />

    
    <glyph glyph-name="align-left" unicode="&#59146;" d="M64 832h64v-896H64zM192 704h515v-256H192zM192 320h768v-256H192z"  horiz-adv-x="1024" />

    
    <glyph glyph-name="jurassic_HorRight-fenbu" unicode="&#59147;" d="M960 832v-896h-64V832zM448 832v-896h-64V832zM832 576v-384H640V576zM320 704v-640H64V704z"  horiz-adv-x="1024" />

    
    <glyph glyph-name="jurassic_HorLeft-fenbu" unicode="&#59148;" d="M704 832v-896h-64V832zM128 832v-896H64V832zM960 576v-384H768V576zM448 704v-640H192V704z"  horiz-adv-x="1024" />

    
    <glyph glyph-name="v-center" unicode="&#59151;" d="M64 637h896v-64H64zM64 224h896v-64H64zM320 704h384v-192H320zM192 320h640v-256H192z"  horiz-adv-x="1024" />

    
    <glyph glyph-name="jurassic_VerBottom-fenbu" unicode="&#59152;" d="M64 576h896v-64H64zM64 0h896v-64H64zM320 832h384v-192H320zM192 320h640v-256H192z"  horiz-adv-x="1024" />

    
    <glyph glyph-name="align-top-bottom" unicode="&#59153;" d="M896 768h64v-768h-64zM768 768h64v-768h-64zM640 768h64v-768h-64zM512 768h64v-768h-64zM448 312.20000000000005l-128-128V583.8l128-128V640L256 832 64 640v-184.2l128 128v-399.6l-128 128V128l192-192 192 192z"  horiz-adv-x="1024" />

    
    <glyph glyph-name="align-bottom" unicode="&#59154;" d="M64 0h896v-64H64zM192 64V832h256v-768zM576 64V576h256v-512z"  horiz-adv-x="1024" />

    
    <glyph glyph-name="align-v-center" unicode="&#59155;" d="M64 416h896v-64H64zM832 640v-512H576V640zM448 768v-768H192V768z"  horiz-adv-x="1024" />

    
    <glyph glyph-name="move-top" unicode="&#58900;" d="M450 670c37.16 33.787 94.508 31.666 129-5l319-344c8.957-9.352 14-22.087 14-35 0-29.03-23.404-52.012-52-52H733a8 8 0 0 1-8-8v-150c0-70.692-57.308-128-128-128H427c-70.692 0-128 57.308-128 128V226a8 8 0 0 1-8 8H164c-13.106-0.012-25.431 4.704-35 13v1c-21.566 19.037-22.505 51.627-3 73l318 343c1.757 1.842 3.36 3.467 5 5zM840 819c17.47 0 32-14.55 32-33 0-17.45-14.53-32-32-32H185c-18.47 0-33 14.55-33 32 0 18.45 14.53 33 33 33z"  horiz-adv-x="1024" />

    
    <glyph glyph-name="text-left" unicode="&#58965;" d="M539.989333 72.02133300000003a36.010667 36.010667 0 1 0 0-72.021333h-391.964444a36.010667 36.010667 0 1 0 0 72.021333h391.964444z m335.985778 231.992889a36.010667 36.010667 0 1 0 0-72.021333H148.024889a36.010667 36.010667 0 1 0 0 72.021333h727.950222zM539.989333 536.007111a36.010667 36.010667 0 0 0 0-72.021333h-391.964444a36.010667 36.010667 0 0 0 0 72.021333h391.964444z m335.985778 231.992889a36.010667 36.010667 0 1 0 0-72.021333H148.024889a36.010667 36.010667 0 0 0 0 72.021333h727.950222z"  horiz-adv-x="1024" />

    
    <glyph glyph-name="text-right" unicode="&#58966;" d="M875.975111 72.02133300000003a36.010667 36.010667 0 1 0 0-72.021333h-391.964444a36.010667 36.010667 0 1 0 0 72.021333h391.964444z m0 231.992889a36.010667 36.010667 0 1 0 0-72.021333H148.024889a36.010667 36.010667 0 1 0 0 72.021333h727.950222z m0 231.992889a36.010667 36.010667 0 1 0 0-72.021333h-391.964444a36.010667 36.010667 0 0 0 0 72.021333h391.964444z m0 231.992889a36.010667 36.010667 0 1 0 0-72.021333H148.024889a36.010667 36.010667 0 0 0 0 72.021333h727.950222z"  horiz-adv-x="1024" />

    
    <glyph glyph-name="text-justify" unicode="&#58967;" d="M875.975111 72.02133300000003a36.010667 36.010667 0 1 0 0-72.021333H148.024889a36.010667 36.010667 0 1 0 0 72.021333h727.950222z m0 231.992889a36.010667 36.010667 0 1 0 0-72.021333H148.024889a36.010667 36.010667 0 1 0 0 72.021333h727.950222z m0 231.992889a36.010667 36.010667 0 1 0 0-72.021333H148.024889a36.010667 36.010667 0 0 0 0 72.021333h727.950222z m0 231.992889a36.010667 36.010667 0 1 0 0-72.021333H148.024889a36.010667 36.010667 0 0 0 0 72.021333h727.950222z"  horiz-adv-x="1024" />

    
    <glyph glyph-name="text-center" unicode="&#58968;" d="M707.982222 72.02133300000003a36.010667 36.010667 0 1 0 0-72.021333h-391.964444a36.010667 36.010667 0 1 0 0 72.021333h391.964444z m167.992889 231.992889a36.010667 36.010667 0 1 0 0-72.021333H148.024889a36.010667 36.010667 0 1 0 0 72.021333h727.950222z m-167.992889 231.992889a36.010667 36.010667 0 1 0 0-72.021333h-391.964444a36.010667 36.010667 0 0 0 0 72.021333h391.964444z m167.992889 231.992889a36.010667 36.010667 0 1 0 0-72.021333H148.024889a36.010667 36.010667 0 0 0 0 72.021333h727.950222z"  horiz-adv-x="1024" />

    


  </font>
</defs>
</svg>
