<?xml version="1.0" encoding="utf-8"?>
<!-- Generator: Adobe Illustrator 23.0.1, SVG Export Plug-In . SVG Version: 6.00 Build 0)  -->
<svg version="1.1" id="图层_1" xmlns="http://www.w3.org/2000/svg" xmlns:xlink="http://www.w3.org/1999/xlink" x="0px" y="0px"
	 viewBox="0 0 590 180" style="enable-background:new 0 0 590 180;" xml:space="preserve">
<style type="text/css">
	.st0{fill:#0086EA;}
	.st1{fill:#6D6D6D;}
	.st2{fill:#ADADAD;}
</style>
<g>
	<path d="M1.53,18.22c4.58-1,11.75-1.73,18.93-1.73c10.41,0,17.06,1.76,22.04,5.82c4.15,3.15,6.71,7.92,6.71,14.21
		c0,7.76-5.17,14.59-13.57,17.58v0.32c7.64,1.84,16.57,8.13,16.57,20.14c0,6.85-2.73,12.16-6.87,15.99
		c-5.52,5.19-14.56,7.54-27.71,7.54c-7.19,0-12.62-0.5-16.1-0.89V18.22z M11.89,51.11h9.5c10.85,0,17.28-5.78,17.28-13.56
		c0-9.31-7.05-13.07-17.54-13.07c-4.81,0-7.54,0.35-9.23,0.75V51.11z M11.89,89.5c2.12,0.43,4.99,0.53,8.73,0.53
		c10.77,0,20.66-3.94,20.66-15.62c0-10.91-9.45-15.49-20.77-15.51h-8.63V89.5z"/>
	<path d="M111.08,81.63c0,6.04,0.2,11.21,0.48,15.76h-9.26l-0.56-9.42h-0.29C98.8,92.61,92.71,98.7,82.39,98.7
		c-9.01,0-19.84-5.05-19.84-25.24V39.8h10.42v31.82c0,10.97,3.42,18.44,12.87,18.44c7.02,0,11.92-4.91,13.86-9.61
		c0.54-1.51,0.95-3.38,0.95-5.37V39.8h10.42V81.63z"/>
	<path d="M150.46,12.83h10.42v84.56h-10.42V12.83z"/>
	<path d="M225.31,12.83v69.7c0,5.12,0.2,10.88,0.48,14.85h-9.31l-0.53-9.96h-0.28c-3.2,6.43-10.13,11.27-19.54,11.27
		c-13.96,0-24.72-11.8-24.72-29.26c-0.09-19.25,11.86-30.95,25.88-30.95c8.84,0,14.8,4.14,17.38,8.74h0.24V12.83H225.31z
		 M214.89,63.23c0-1.36-0.13-3.1-0.44-4.48c-1.63-6.61-7.28-12.05-15.17-12.05c-10.85,0-17.33,9.51-17.33,22.17
		c0,11.7,5.82,21.41,17.12,21.41c7.01,0,13.38-4.73,15.31-12.58c0.37-1.38,0.52-2.85,0.52-4.49V63.23z"/>
	<path d="M264.68,55.35c0-6.01-0.2-10.78-0.48-15.56h9.26l0.58,9.47h0.29c2.83-5.41,9.53-10.78,19.04-10.78
		c7.91,0,20.3,4.76,20.3,24.55v34.36h-10.42V64.18c0-9.31-3.51-17.11-13.31-17.11c-6.87,0-12.24,4.89-14.11,10.75
		c-0.43,1.28-0.72,3.13-0.72,4.86v34.71h-10.42V55.35z"/>
	<path d="M377.51,39.8c-0.29,4.07-0.49,8.75-0.49,15.76V89c0,13.33-2.72,21.32-8.22,26.37c-5.66,5.19-13.72,6.91-20.98,6.91
		c-6.97,0-14.55-1.63-19.23-4.74l2.62-8.06c3.84,2.4,9.77,4.61,16.96,4.61c10.69,0,18.55-5.6,18.55-20.18v-6.42h-0.24
		c-3.15,5.41-9.43,9.7-18.3,9.7c-14.36,0-24.56-12.21-24.56-28.17c0-19.53,12.7-30.54,26-30.54c10,0,15.4,5.14,17.97,9.94h0.24
		l0.44-8.63H377.51z M366.61,62.45c0-1.71-0.15-3.28-0.58-4.68c-1.93-6.1-6.99-11.14-14.71-11.14c-9.99,0-17.16,8.45-17.16,21.84
		c0,11.27,5.82,20.75,17.05,20.75c6.5,0,12.33-4.11,14.57-10.8c0.56-1.69,0.82-3.74,0.82-5.57V62.45z"/>
</g>
<path class="st0" d="M395.16,101.12V13.69h20.34v87.43H395.16z"/>
<path class="st0" d="M504.3,101.12V32.63h-22.01V13.69h64.43v18.93h-22.09v68.49H504.3z"/>
<path d="M251.5,36.44c0.01,3.56-2.5,6.51-6.66,6.51c-3.79,0-6.33-2.95-6.32-6.51c-0.01-3.6,2.68-6.52,6.51-6.52
	C248.93,29.92,251.47,32.78,251.5,36.44z"/>
<path d="M244.72,47.19c-1.84,0-3.5-0.43-4.93-1.18v51.38h10.42V45.93C248.67,46.73,246.82,47.19,244.72,47.19z"/>
<path d="M137.07,36.44c0.01,3.56-2.5,6.51-6.66,6.51c-3.79,0-6.33-2.95-6.32-6.51c-0.01-3.6,2.68-6.52,6.51-6.52
	C134.51,29.92,137.04,32.78,137.07,36.44z"/>
<path d="M130.3,47.19c-1.84,0-3.5-0.43-4.93-1.18v51.38h10.42V45.93C134.24,46.73,132.4,47.19,130.3,47.19z"/>
<path class="st0" d="M458.85,37.72c-17.51,0-31.7,14.19-31.7,31.7s14.19,31.7,31.7,31.7s31.7-14.19,31.7-31.7
	S476.36,37.72,458.85,37.72z M458.85,83.8c-7.94,0-14.38-6.44-14.38-14.38s6.44-14.38,14.38-14.38s14.38,6.44,14.38,14.38
	S466.79,83.8,458.85,83.8z"/>
<path class="st1" d="M8.64,148.29c0.86,0,1.43,0.9,1.08,1.68l-4.44,10.06h3.08c0.36,0,0.68,0.14,0.93,0.43
	c0.21,0.29,0.32,0.64,0.21,0.97c-0.75,3.94-1.83,7.7-3.55,11.17c1.51,1.58,3.33,2.83,5.44,3.55c1.33,0.47,2.72,0.68,4.19,0.68h15.04
	c0.64,0,1.18,0.54,1.18,1.18v0.07c0,0.64-0.54,1.18-1.18,1.18H15.58c-1.72,0-3.37-0.25-4.91-0.82c-2.26-0.79-4.23-2.04-5.91-3.65
	c-0.75,1.32-1.65,2.58-2.65,3.83c-0.18,0.25-0.47,0.43-0.82,0.47c-0.32,0.04-0.61-0.07-0.86-0.32l-0.04-0.04
	c-0.47-0.39-0.54-1.15-0.14-1.61c1.07-1.36,2.04-2.76,2.83-4.19c-1-1.25-1.86-2.69-2.54-4.19c-0.11-0.29-0.11-0.61-0.04-0.93
	c0.14-0.32,0.36-0.54,0.68-0.64l0.04-0.04c0.61-0.25,1.25,0,1.54,0.61c0.43,1,0.97,1.94,1.54,2.79c1.15-2.51,1.97-5.19,2.65-8.09
	H1.58c-0.68,0-1.18-0.5-1.18-1.18v-0.04c0-0.64,0.5-1.18,1.18-1.18h1.04l4.12-9.31H1.22c-0.61,0-1.18-0.5-1.18-1.18v-0.07
	c0-0.64,0.57-1.18,1.18-1.18H8.64z M30.34,170.35c0.64,0,1.18,0.54,1.18,1.18v0.07c0,0.61-0.54,1.18-1.18,1.18h-8.2v1.36
	c0,0.65-0.54,1.18-1.18,1.18h-0.07c-0.61,0-1.18-0.54-1.18-1.18v-1.36h-8.2c-0.61,0-1.18-0.57-1.18-1.18v-0.07
	c0-0.64,0.57-1.18,1.18-1.18h8.2v-2.86h-7.09c-0.64,0-1.18-0.5-1.18-1.18v-0.04c0-0.64,0.54-1.18,1.18-1.18h7.09v-2.43h-6.55
	c-0.64,0-1.18-0.54-1.18-1.18v-0.07c0-0.64,0.54-1.18,1.18-1.18h6.55v-2.72h-8.49c-0.64,0-1.18-0.54-1.18-1.18v-0.07
	c0-0.65,0.54-1.18,1.18-1.18h8.49v-3.55h-6.55c-0.64,0-1.18-0.5-1.18-1.18v-0.07c0-0.64,0.54-1.18,1.18-1.18h6.55v-0.57
	c0-0.64,0.57-1.18,1.18-1.18h0.07c0.64,0,1.18,0.54,1.18,1.18v0.57h4.22c1,0,1.97,0.43,2.69,1.15c0.72,0.75,1.15,1.68,1.15,2.72
	v2.11h0.47c0.65,0,1.18,0.54,1.18,1.18v0.07c0,0.64-0.54,1.18-1.18,1.18H30.2v1.32c0,1-0.43,1.94-1.15,2.69
	c-0.71,0.71-1.68,1.15-2.69,1.15h-4.22v2.43h7.12c0.61,0,1.15,0.54,1.15,1.18v0.04c0,0.68-0.54,1.18-1.15,1.18h-7.12v2.86H30.34z
	 M27.76,152.94c0-0.39-0.14-0.75-0.39-1.04c-0.29-0.25-0.61-0.4-1-0.4h-4.22v3.55h5.62V152.94z M26.37,160.21
	c0.39,0,0.72-0.14,1-0.39c0.25-0.29,0.39-0.61,0.39-1v-1.32h-5.62v2.72H26.37z"/>
<path class="st1" d="M53.51,159.75c0.61,0,1.15,0.5,1.15,1.18v0.04c0,0.68-0.54,1.18-1.15,1.18h-3.37v12.71l3.33-0.79
	c0.65-0.15,1.29,0.25,1.4,0.9l0.04,0.07c0.15,0.64-0.25,1.25-0.86,1.43l-9.46,2.15c-0.64,0.14-1.25-0.25-1.43-0.9v-0.04
	c-0.14-0.64,0.29-1.25,0.9-1.43l3.66-0.82v-0.15v-13.14h-3.4c-0.61,0-1.15-0.5-1.15-1.18v-0.04c0-0.68,0.54-1.18,1.15-1.18H53.51z
	 M46.85,150.65h9.99c0.68,0,1.18,0.54,1.18,1.18v0.04c0,0.64-0.5,1.18-1.18,1.18h-5.95v2.9c0,0.68-0.57,1.18-1.18,1.18H49.6
	c-0.64,0-1.18-0.5-1.18-1.18v-2.9h-3.69c-0.86,0-1.47-0.96-1.04-1.75l1.47-2.69c0.32-0.57,1-0.79,1.58-0.5l0.07,0.04
	c0.61,0.29,0.83,1.04,0.54,1.61L46.85,150.65z M57.2,162.33c0.11-1.54,0.97-2.86,2.36-3.51c0.47-0.21,0.97-0.28,1.5-0.28h7.49
	c0.54,0,1.04,0.07,1.5,0.28c1.4,0.61,2.36,1.94,2.36,3.51v13.72c0,0.43,0.11,0.75,0.39,1c0.25,0.25,0.54,0.36,0.93,0.36
	c0.64,0.04,1.15,0.57,1.15,1.18v0.11c0,0.68-0.54,1.22-1.22,1.18c-1.54-0.03-2.79-0.96-3.37-2.36c-0.21-0.47-0.32-0.97-0.32-1.47
	v-13.72c0-0.39-0.14-0.72-0.39-1c-0.29-0.25-0.64-0.39-1.04-0.39h-7.49c-0.39,0-0.75,0.15-0.97,0.39c-0.25,0.32-0.39,0.65-0.46,1.04
	l-0.68,16.4c-0.03,0.65-0.57,1.15-1.22,1.15H57.7c-0.68-0.04-1.22-0.57-1.18-1.25L57.2,162.33z M64.18,150.65h9.21
	c0.64,0,1.18,0.54,1.18,1.18v0.04c0,0.64-0.54,1.18-1.18,1.18H67.8v2.9c0,0.68-0.5,1.18-1.18,1.18h-0.04c-0.64,0-1.18-0.5-1.18-1.18
	v-2.9h-3.26c-0.9,0-1.43-0.93-1.04-1.72l1.43-2.72c0.32-0.57,1-0.79,1.61-0.5c0.29,0.18,0.47,0.36,0.57,0.72
	c0.11,0.32,0.07,0.64-0.07,0.9L64.18,150.65z M65.94,173.07c0,0.68-0.54,1.18-1.18,1.18h-0.07c-0.64,0-1.18-0.5-1.18-1.18v-8.24
	c0-0.64,0.54-1.15,1.18-1.15h0.07c0.64,0,1.18,0.5,1.18,1.15V173.07z"/>
<path class="st1" d="M89.1,154.2h2.97v-5.8c0-0.61,0.5-1.18,1.18-1.18h0.04c0.64,0,1.15,0.57,1.15,1.18v5.8h2.36
	c0.61,0,1.15,0.57,1.15,1.18v0.07c0,0.64-0.54,1.18-1.15,1.18h-2.36v10.39l2.79-1.22c0.61-0.29,1.29,0,1.54,0.57l0.04,0.11
	c0.29,0.57,0,1.29-0.61,1.54l-3.76,1.61v8.56c0,0.64-0.5,1.18-1.15,1.18h-0.04c-0.68,0-1.18-0.54-1.18-1.18v-7.52l-4.55,1.93
	c-0.57,0.25-1.29-0.04-1.54-0.61l-0.04-0.04c-0.25-0.64,0-1.32,0.61-1.58l5.51-2.36v-11.39H87.6c-0.36,0-0.64-0.18-0.9-0.43
	c-0.21-0.29-0.32-0.61-0.25-0.97l1-5.01c0.14-0.64,0.75-1.04,1.4-0.9c0.32,0.07,0.57,0.18,0.79,0.5c0.14,0.25,0.21,0.54,0.14,0.86
	L89.1,154.2z M106.04,153.95c-1.04,8.67-2.58,15.97-5.08,24.07c-0.21,0.64-0.86,1-1.47,0.79l-0.04-0.04
	c-0.61-0.14-0.97-0.82-0.75-1.43c1.04-3.4,1.93-6.66,2.72-10.28c0.93-4.22,1.61-8.67,2.18-13.18h-2.4c-0.86,0-1.4-0.9-1.04-1.68
	l1.61-3.54c0.25-0.57,0.93-0.83,1.54-0.57l0.07,0.04c0.29,0.14,0.5,0.36,0.61,0.64c0.15,0.29,0.15,0.61,0,0.9l-0.86,1.76h10.06
	c1.83,0,3.4,1.15,4.12,2.76c0.21,0.57,0.32,1.11,0.32,1.72v19.02c0,0.61-0.11,1.18-0.32,1.72c-0.72,1.65-2.33,2.72-4.12,2.72h-1.54
	c-0.64,0-1.18-0.54-1.18-1.18v-0.07c0-0.64,0.54-1.18,1.18-1.18h1.54c0.57,0,1.04-0.18,1.43-0.57c0.39-0.39,0.57-0.9,0.57-1.43
	v-19.02c0-0.57-0.18-1.04-0.57-1.43c-0.39-0.36-0.86-0.57-1.43-0.57h-0.9v0.04c-0.21,2.4-0.47,4.62-0.72,6.73
	c-0.86,6.13-2.01,11.61-3.65,17.37c-0.18,0.64-0.82,1-1.43,0.79h-0.11c-0.61-0.18-0.97-0.82-0.79-1.43c0.4-1.4,0.75-2.86,1.11-4.33
	c1.04-4.08,1.83-8.38,2.4-12.75c0.29-2.01,0.5-4.12,0.68-6.41h-3.76V153.95z"/>
<path class="st1" d="M130.03,175.19c-0.64,0.07-1.25-0.32-1.36-1v-0.07c-0.07-0.65,0.32-1.25,1-1.36l0.57-0.07v-0.14v-22.17h-0.07
	c-0.61,0-1.18-0.5-1.18-1.18v-0.07c0-0.61,0.57-1.18,1.18-1.18h11c0.64,0,1.18,0.57,1.18,1.18v0.07c0,0.68-0.54,1.18-1.18,1.18
	h-0.07v20.67l0.43-0.07c0.68-0.07,1.25,0.4,1.36,1v0.11c0.15,0.61-0.32,1.22-1,1.32l-0.79,0.14v5.09c0,0.64-0.54,1.18-1.18,1.18
	h-0.04c-0.68,0-1.18-0.54-1.18-1.18v-4.73L130.03,175.19z M132.72,155.85h5.98v-5.48h-5.98V155.85z M132.72,163.8h5.98v-5.52h-5.98
	V163.8z M132.72,172.29l5.98-0.9v-5.16h-5.98V172.29z M144.22,165.09c-0.64,0-1.18-0.54-1.18-1.18v-0.04c0-0.68,0.54-1.18,1.18-1.18
	h6.09l0.11-0.64c0.18-1.9,0.29-4.01,0.29-6.37v-0.79h-5.41c-0.68,0-1.18-0.57-1.18-1.18v-0.07c0-0.64,0.5-1.18,1.18-1.18h1.5
	l-1.22-2.97c-0.25-0.64,0.03-1.32,0.64-1.58h0.04c0.64-0.25,1.29,0.04,1.54,0.64l1.5,3.58c0.04,0.11,0.07,0.21,0.07,0.32h5.41
	c0-0.11,0.04-0.21,0.07-0.32l1.47-3.58c0.25-0.61,0.93-0.9,1.54-0.64c0.32,0.11,0.54,0.36,0.68,0.64c0.14,0.29,0.14,0.61,0,0.93
	l-1.25,2.97h1.58c0.64,0,1.18,0.54,1.18,1.18v0.07c0,0.61-0.54,1.18-1.18,1.18h-5.7v0.79c0,2.54-0.14,4.84-0.36,6.88
	c0,0.07-0.04,0.11-0.04,0.14h7.06c0.68,0,1.18,0.5,1.18,1.18v0.04c0,0.64-0.5,1.18-1.18,1.18h-6.37l6.91,12.36
	c0.32,0.57,0.14,1.32-0.43,1.61l-0.04,0.04c-0.57,0.32-1.29,0.11-1.61-0.47l-6.41-11.39c-0.11,0.39-0.25,0.79-0.36,1.18
	c-1.33,3.9-3.62,7.24-6.52,10.5c-0.21,0.25-0.47,0.39-0.82,0.43c-0.36,0-0.65-0.11-0.9-0.36c-0.47-0.43-0.5-1.15-0.07-1.65
	c2.65-3.05,4.76-6.13,6.02-9.78c0.25-0.79,0.47-1.61,0.68-2.47H144.22z"/>
<path class="st1" d="M197.5,177.37c0.61,0,1.08-0.18,1.47-0.57c0.39-0.43,0.57-0.9,0.57-1.51v-22.38c0-0.61-0.18-1.07-0.57-1.47
	c-0.39-0.4-0.86-0.61-1.47-0.61h-19.98c-0.61,0-1.08,0.21-1.47,0.61c-0.39,0.39-0.57,0.86-0.57,1.47v25.79
	c0,0.64-0.54,1.18-1.18,1.18h-0.11c-0.64,0-1.18-0.54-1.18-1.18v-25.79c0-0.64,0.15-1.22,0.36-1.75c0.72-1.68,2.26-2.79,4.16-2.79
	h19.98c1.9,0,3.44,1.11,4.16,2.79c0.21,0.54,0.36,1.11,0.36,1.75v22.38c0,0.65-0.15,1.22-0.36,1.76c-0.47,1.11-1.29,1.9-2.4,2.4
	c-0.54,0.21-1.11,0.36-1.76,0.36h-1.22c-0.68,0-1.18-0.54-1.18-1.18v-0.07c0-0.64,0.5-1.18,1.18-1.18H197.5z M186.76,155.92
	c-0.64,2.97-1.54,5.8-2.69,8.45l2.83,5.12c0.28,0.57,0.07,1.29-0.47,1.58c-0.32,0.21-0.61,0.25-0.97,0.14
	c-0.32-0.07-0.54-0.25-0.72-0.57l-1.97-3.55c-1.15,2.29-2.47,4.51-4.01,6.59c-0.36,0.57-1.11,0.68-1.61,0.32l-0.07-0.04
	c-0.5-0.39-0.65-1.11-0.29-1.65c1.79-2.51,3.33-5.05,4.58-7.81l-4.23-7.77c-0.36-0.61-0.14-1.29,0.39-1.61
	c0.36-0.18,0.65-0.21,0.97-0.14c0.32,0.11,0.57,0.32,0.72,0.57l3.33,6.09c0.75-1.97,1.36-4.05,1.83-6.23
	c0.14-0.61,0.75-1.04,1.36-0.9c0.39,0.04,0.61,0.21,0.79,0.5C186.76,155.31,186.83,155.59,186.76,155.92z M197.68,155.92
	c-0.65,3.15-1.61,6.12-2.79,8.92l3.54,7.45c0.29,0.57,0.04,1.29-0.54,1.54l-0.04,0.04c-0.61,0.28-1.29,0.04-1.58-0.57l-2.76-5.73
	c-1.11,2.15-2.4,4.19-3.8,6.16c-0.39,0.54-1.11,0.68-1.65,0.29l-0.04-0.04c-0.54-0.39-0.65-1.11-0.29-1.65
	c1.72-2.43,3.19-4.91,4.44-7.56l-4.01-8.49c-0.29-0.57-0.07-1.29,0.54-1.54c0.28-0.18,0.61-0.18,0.93-0.11
	c0.32,0.14,0.54,0.32,0.68,0.64l3.11,6.55c0.79-2.04,1.4-4.16,1.9-6.41c0.14-0.61,0.75-1.04,1.36-0.9c0.36,0.04,0.61,0.21,0.79,0.5
	C197.72,155.31,197.75,155.59,197.68,155.92z"/>
<path class="st1" d="M245.17,158.89c0.64,0,1.18,0.54,1.18,1.18v0.07c0,0.64-0.54,1.18-1.18,1.18h-21.6l-3.76,15.3h20.38
	c0.54,0,1.04-0.25,1.43-0.65c0.4-0.39,0.61-0.86,0.61-1.43v-5.88c0-0.64,0.54-1.18,1.15-1.18h0.07c0.68,0,1.18,0.54,1.18,1.18v5.88
	c0,0.61-0.07,1.18-0.36,1.75c-0.47,1.07-1.29,1.9-2.36,2.36c-0.54,0.25-1.15,0.36-1.72,0.36h-21.74c-0.4,0-0.68-0.14-0.9-0.43
	c-0.25-0.32-0.36-0.68-0.25-1.04l3.87-16.23h-4.98c-0.64,0-1.18-0.54-1.18-1.18v-0.07c0-0.64,0.54-1.18,1.18-1.18H245.17z
	 M243.84,149c0.68,0,1.18,0.54,1.18,1.18v0.07c0,0.68-0.5,1.18-1.18,1.18h-26.32c-0.68,0-1.18-0.5-1.18-1.18v-0.07
	c0-0.64,0.5-1.18,1.18-1.18H243.84z"/>
<path class="st1" d="M264.18,152.77c-0.54,0-1,0.25-1.4,0.68c-0.36,0.39-0.57,0.9-0.65,1.47l-1.54,23.53
	c-0.04,0.64-0.57,1.15-1.22,1.11h-0.07c-0.64-0.04-1.15-0.61-1.11-1.25l1.5-23.53c0.07-0.57,0.21-1.15,0.43-1.72
	c0.47-1.07,1.29-1.86,2.33-2.33c0.54-0.21,1.11-0.36,1.72-0.36h9.56v-1.97c0-0.64,0.54-1.18,1.18-1.18h0.07
	c0.65,0,1.15,0.54,1.15,1.18v1.97h11.25c0.68,0,1.18,0.54,1.18,1.18v0.07c0,0.64-0.5,1.15-1.18,1.15H264.18z M287.74,176.87
	c0.61,0,1.15,0.57,1.15,1.18v0.07c0,0.68-0.54,1.18-1.15,1.18h-23.06c-0.64,0-1.15-0.5-1.15-1.18v-0.07c0-0.61,0.5-1.18,1.15-1.18
	h14.68c0-0.11,0.04-0.21,0.11-0.32c2.5-5.44,4.37-11.6,5.55-18.52c0.07-0.64,0.68-1.08,1.33-0.97l0.07,0.04
	c0.64,0.11,1.07,0.68,0.96,1.36c-1.11,6.45-2.83,12.61-5.48,18.41H287.74z M270.59,173.47c0.07,0.68-0.36,1.25-1,1.36l-0.07,0.03
	c-0.64,0.07-1.25-0.36-1.32-1l-2.54-15.4c-0.14-0.68,0.32-1.25,0.97-1.36l0.07-0.04c0.64-0.11,1.25,0.32,1.36,1L270.59,173.47z
	 M278,170.03c0.07,0.61-0.36,1.22-0.97,1.36h-0.11c-0.64,0.07-1.25-0.36-1.32-1l-1.94-11.93c-0.11-0.68,0.32-1.25,0.97-1.36
	l0.07-0.04c0.64-0.11,1.25,0.32,1.36,1L278,170.03z"/>
<path class="st1" d="M305.11,169.89h-0.07l-0.39,8.67c0,0.32-0.15,0.64-0.36,0.83c-0.28,0.25-0.57,0.32-0.89,0.32l-0.03-0.04
	c-0.65-0.03-1.15-0.57-1.12-1.22l1.25-26.18c0.04-0.57,0.14-1.15,0.43-1.68c0.47-1.04,1.22-1.83,2.33-2.33
	c0.5-0.25,1.11-0.36,1.72-0.36h18.59c0.61,0,1.18,0.11,1.72,0.36c1.08,0.47,1.9,1.29,2.4,2.36c0.22,0.54,0.36,1.15,0.36,1.75v22.78
	c0,0.61-0.14,1.18-0.36,1.72c-0.5,1.11-1.32,1.93-2.4,2.4c-0.54,0.25-1.11,0.36-1.72,0.36h-1.04c-0.65,0-1.18-0.54-1.18-1.18v-0.04
	c0-0.68,0.54-1.18,1.18-1.18h1.04c0.54,0,1.04-0.21,1.47-0.64c0.4-0.39,0.57-0.86,0.57-1.43v-5.26h-10.67v8.27
	c0,0.68-0.54,1.18-1.18,1.18h-0.07c-0.64,0-1.18-0.5-1.18-1.18v-8.27H305.11z M305.15,167.49h10.35v-7.2h-9.99L305.15,167.49z
	 M306.54,150.94c-0.4,0.39-0.61,0.93-0.65,1.5l-0.25,5.41h9.85v-7.52h-7.52C307.4,150.33,306.94,150.51,306.54,150.94z
	 M328.61,152.37c0-0.57-0.18-1.07-0.57-1.47c-0.43-0.39-0.93-0.57-1.47-0.57h-8.63v7.52h10.67V152.37z M317.93,167.49h10.67v-7.2
	h-10.67V167.49z"/>
<path class="st1" d="M357.9,147.82c0.68,0,1.22,0.5,1.22,1.15v0.07c0.04,0.64-0.5,1.18-1.11,1.22l-5.09,0.21v5.55h5.73
	c0.68,0,1.18,0.54,1.18,1.18v0.07c0,0.64-0.5,1.18-1.18,1.18h-5.73v20.13c0,0.64-0.54,1.18-1.18,1.18h-0.07
	c-0.64,0-1.18-0.54-1.18-1.18v-20.13h-5.73c-0.65,0-1.18-0.54-1.18-1.18v-0.07c0-0.64,0.54-1.18,1.18-1.18h5.73v-5.45l-4.97,0.18
	c-0.65,0.04-1.22-0.43-1.25-1.11v-0.07c0-0.65,0.5-1.18,1.15-1.22L357.9,147.82z M348.19,161.94c0,3.22-0.21,6.34-0.64,9.38
	c-0.36,2.54-0.9,4.94-1.61,7.16c-0.22,0.64-0.9,0.96-1.51,0.75h-0.03c-0.65-0.21-0.97-0.86-0.75-1.5c0.68-2.11,1.18-4.41,1.54-6.84
	c0.4-2.87,0.57-5.84,0.57-8.95v-0.25c0-0.64,0.54-1.18,1.18-1.18h0.07c0.64,0,1.18,0.54,1.18,1.18V161.94z M359.76,177.91
	c0.11,0.64-0.36,1.25-1,1.32h-0.07c-0.65,0.11-1.25-0.36-1.29-0.97l-2.33-16.44c-0.03-0.61,0.4-1.22,1.04-1.32h0.07
	c0.64-0.07,1.25,0.36,1.32,1L359.76,177.91z M367.17,179.13c-0.65,0-1.18-0.11-1.76-0.36c-1.07-0.47-1.9-1.29-2.4-2.36
	c-0.21-0.57-0.32-1.11-0.32-1.76V152.8c0-0.61,0.11-1.22,0.32-1.72c0.5-1.15,1.33-1.93,2.4-2.4c0.57-0.25,1.11-0.36,1.76-0.36h4.01
	c0.65,0,1.22,0.11,1.79,0.36c1.08,0.47,1.9,1.25,2.36,2.4c0.22,0.5,0.36,1.11,0.36,1.72v21.85c0,0.64-0.14,1.18-0.36,1.76
	c-0.46,1.07-1.29,1.9-2.36,2.36c-0.57,0.25-1.14,0.36-1.79,0.36H367.17z M371.18,176.73c0.61,0,1.08-0.21,1.47-0.61
	c0.39-0.39,0.61-0.86,0.61-1.47V152.8c0-0.57-0.22-1.04-0.61-1.47c-0.4-0.39-0.86-0.61-1.47-0.61h-4.01c-0.57,0-1.08,0.21-1.47,0.61
	c-0.43,0.43-0.61,0.9-0.61,1.47v21.85c0,0.61,0.18,1.08,0.61,1.47c0.39,0.39,0.89,0.61,1.47,0.61H371.18z"/>
<path class="st1" d="M415.94,148c0.61,0,1.18,0.54,1.18,1.18v0.04c0,0.64-0.57,1.18-1.18,1.18h-12.25v16.08h13.43
	c0.65,0,1.18,0.5,1.18,1.18v0.07c0,0.61-0.54,1.18-1.18,1.18h-13.43v9.96c0,0.64-0.54,1.18-1.18,1.18h-0.03
	c-0.65,0-1.18-0.54-1.18-1.18v-9.96h-13.47c-0.61,0-1.18-0.57-1.18-1.18v-0.07c0-0.68,0.57-1.18,1.18-1.18h13.47V150.4h-12.29
	c-0.64,0-1.18-0.54-1.18-1.18v-0.04c0-0.64,0.54-1.18,1.18-1.18H415.94z M395.49,162.22c0.18,0.61-0.11,1.25-0.68,1.51l-0.07,0.04
	c-0.65,0.21-1.33-0.11-1.54-0.72l-3.3-8.92c-0.18-0.57,0.11-1.25,0.71-1.51l0.07-0.03c0.61-0.22,1.29,0.11,1.51,0.71L395.49,162.22z
	 M415.15,154.05c-0.4,1.75-0.89,3.37-1.47,4.87c-0.54,1.43-1.18,2.9-1.83,4.26c-0.28,0.61-1,0.83-1.61,0.54h-0.03
	c-0.57-0.29-0.83-1.04-0.5-1.58c0.61-1.36,1.18-2.69,1.72-4.08c0.54-1.43,1-2.94,1.4-4.58c0.18-0.61,0.79-1,1.43-0.9
	c0.32,0.07,0.57,0.25,0.79,0.57C415.19,153.41,415.26,153.73,415.15,154.05z"/>
<path class="st1" d="M431.12,167.95c0-0.65,0.11-1.18,0.36-1.76c0.47-1.07,1.25-1.9,2.4-2.36c0.5-0.25,1.11-0.36,1.72-0.36h19.7
	c0.61,0,1.18,0.11,1.72,0.36c1.11,0.47,1.9,1.29,2.36,2.36c0.28,0.57,0.36,1.11,0.36,1.76v7.27c0,0.64-0.07,1.22-0.36,1.75
	c-0.47,1.11-1.25,1.9-2.36,2.4c-0.54,0.21-1.11,0.36-1.72,0.36h-19.7c-0.61,0-1.22-0.14-1.72-0.36c-1.15-0.5-1.94-1.29-2.4-2.4
	c-0.25-0.54-0.36-1.11-0.36-1.75V167.95z M459.2,156.56c0,0.57-0.14,1.18-0.36,1.76c-0.47,1.07-1.29,1.9-2.36,2.33
	c-0.57,0.25-1.15,0.4-1.79,0.4h-21.74c-0.4,0-0.72-0.18-0.97-0.5c-0.21-0.29-0.28-0.68-0.15-1.04l3.62-11.1
	c0.18-0.64,0.83-0.97,1.47-0.79c0.32,0.15,0.54,0.29,0.72,0.57c0.18,0.32,0.18,0.64,0.07,0.93l-3.08,9.49h20.06
	c0.61,0,1.07-0.21,1.47-0.61c0.4-0.39,0.61-0.86,0.61-1.43v-3.44c0-0.68,0.54-1.18,1.18-1.18h0.07c0.64,0,1.18,0.5,1.18,1.18V156.56
	z M433.52,175.22c0,0.61,0.22,1.04,0.61,1.47c0.44,0.4,0.9,0.61,1.47,0.61h19.7c0.54,0,1.04-0.21,1.43-0.61
	c0.39-0.43,0.61-0.86,0.61-1.47v-7.27c0-0.57-0.22-1.04-0.61-1.43c-0.4-0.4-0.9-0.64-1.43-0.64h-19.7c-0.57,0-1.04,0.25-1.47,0.64
	c-0.39,0.39-0.61,0.86-0.61,1.43V175.22z"/>
<path class="st1" d="M473.02,151.15c0.04-1.04,0.4-1.9,1.08-2.58c0.65-0.72,1.51-1.07,2.54-1.07h5.01c1,0,1.97,0.43,2.69,1.15
	c0.71,0.72,1.14,1.68,1.14,2.69v23.78c0,0.64-0.14,1.18-0.36,1.76c-0.47,1.07-1.29,1.9-2.36,2.36c-0.57,0.25-1.14,0.36-1.76,0.36
	h-0.36c-0.64,0-1.18-0.54-1.18-1.18v-0.04c0-0.64,0.54-1.18,1.18-1.18H481c0.57,0,1.08-0.21,1.47-0.61c0.39-0.39,0.57-0.9,0.57-1.47
	v-5.05h-8.17l-0.25,8.49c-0.03,0.61-0.61,1.15-1.22,1.11h-0.07c-0.64,0-1.18-0.57-1.14-1.22L473.02,151.15z M474.95,167.67h8.09V160
	h-7.88L474.95,167.67z M483.05,151.33c0-0.39-0.14-0.72-0.39-1c-0.25-0.25-0.61-0.39-1-0.39h-5.01c-0.4,0-0.65,0.11-0.86,0.36
	c-0.22,0.21-0.32,0.54-0.36,0.9l-0.18,6.41h7.8V151.33z M487.35,151.44c0-0.97,0.43-2.01,1.15-2.69c0.36-0.32,0.75-0.57,1.22-0.79
	c0.5-0.18,0.96-0.29,1.47-0.29h8.92c1.04,0,2.04,0.39,2.72,1.11c0.36,0.32,0.61,0.72,0.79,1.18c0.21,0.5,0.32,0.97,0.32,1.47v4.26
	c0,0.54-0.11,1.04-0.32,1.47c-0.18,0.46-0.43,0.9-0.79,1.25c-0.68,0.72-1.68,1.11-2.72,1.11h-3.58c-0.68,0-1.18-0.5-1.18-1.18v-0.03
	c0-0.65,0.5-1.15,1.18-1.15h3.58c0.4,0,0.75-0.15,1-0.43c0.25-0.28,0.43-0.61,0.43-1.04v-4.26c0-0.36-0.18-0.68-0.43-0.93
	c-0.25-0.32-0.61-0.43-1-0.43h-8.92c-0.39,0-0.71,0.11-0.96,0.43c-0.28,0.25-0.43,0.57-0.43,0.93v9.74h12.53
	c0.4,0,0.75,0.21,0.93,0.54c0.25,0.32,0.32,0.72,0.15,1.07c-1.22,3.22-2.69,6.34-4.55,9.21l4.84,5.26c0.46,0.47,0.43,1.22-0.04,1.65
	c-0.25,0.21-0.5,0.36-0.86,0.32c-0.36,0-0.61-0.14-0.83-0.36l-4.47-4.84c-1.29,1.75-2.76,3.4-4.41,4.91
	c-0.22,0.21-0.5,0.32-0.83,0.32c-0.36-0.04-0.61-0.18-0.83-0.43l-0.07-0.07c-0.39-0.5-0.36-1.22,0.11-1.65
	c1.61-1.47,3.11-3.08,4.41-4.8l-6.09-6.63v12.79c0,0.64-0.54,1.18-1.18,1.18h-0.07c-0.61,0-1.18-0.54-1.18-1.18V151.44z
	 M500.49,163.62h-9.31l6.09,6.66C498.63,168.2,499.7,165.98,500.49,163.62z"/>
<path class="st1" d="M522.44,150.15h20.88c1.04,0,1.58,1.18,0.9,1.97c-1,1.18-2.19,2.33-3.58,3.33c-1.51,1.15-3.16,2.15-4.95,3.08
	l10.5,3.15c0.65,0.18,1,0.86,0.79,1.47l-0.03,0.04c-0.15,0.64-0.83,1-1.43,0.79L532.36,160c-4.8,1.9-10.17,3.05-15.4,3.47
	c-0.65,0.07-1.22-0.43-1.29-1.07v-0.07c-0.04-0.64,0.43-1.22,1.11-1.25c2.29-0.22,4.47-0.5,6.63-0.9c1.79-0.32,3.58-0.71,5.37-1.25
	l-9.31-2.83c-0.64-0.18-0.96-0.86-0.75-1.47v-0.04c0.18-0.61,0.83-0.93,1.43-0.79l12.39,3.76c3.12-1.25,5.95-2.9,8.31-4.98h-20.63
	c-0.93,0-1.51-1-1-1.79l1.76-2.79c0.36-0.57,1.08-0.72,1.65-0.36v0.04c0.57,0.32,0.75,1.04,0.4,1.61L522.44,150.15z M542.53,165.95
	c0.54,0,1.04,0.11,1.51,0.32c0.93,0.39,1.65,1.07,2,2.01c0.22,0.47,0.32,0.97,0.32,1.47v5.66c0,1.61-0.89,2.86-2.33,3.51
	c-0.47,0.18-0.97,0.28-1.51,0.28h-6.3c-0.68,0-1.18-0.54-1.18-1.18v-0.04c0-0.64,0.5-1.18,1.18-1.18h6.3c0.4,0,0.75-0.11,1-0.39
	c0.25-0.25,0.39-0.57,0.39-1v-5.66c0-0.36-0.14-0.68-0.39-0.93c-0.25-0.29-0.61-0.4-1-0.4h-15.51c-0.68,1.54-1.47,3.01-2.33,4.34
	c-1.54,2.33-3.47,4.37-5.84,6.16c-0.25,0.18-0.54,0.28-0.89,0.21c-0.36-0.07-0.61-0.21-0.83-0.47c-0.32-0.54-0.22-1.25,0.28-1.61
	c2.11-1.65,3.9-3.51,5.26-5.66c0.61-0.93,1.15-1.9,1.65-2.97h-6.09c-0.68,0-1.18-0.54-1.18-1.18v-0.11c0-0.61,0.5-1.18,1.18-1.18
	h7.16c0.25-0.68,0.5-1.4,0.72-2.11c0.18-0.61,0.79-0.96,1.43-0.79l0.11,0.04c0.64,0.18,1,0.82,0.83,1.5
	c-0.14,0.47-0.29,0.93-0.47,1.36H542.53z"/>
<path class="st2" d="M577.88,17.44c0.9-0.42,1.6-1.02,2.09-1.8c0.49-0.78,0.74-1.68,0.74-2.7s-0.25-1.92-0.74-2.7
	c-0.49-0.78-1.19-1.38-2.08-1.8c-0.89-0.42-1.93-0.64-3.11-0.64h-6.09h-0.77h-1.25v17.79h2.03v-7.52h6.09c0,0,0.01,0,0.01,0
	l4.37,7.52h2.42l-4.74-7.81C577.19,17.69,577.56,17.59,577.88,17.44z M568.68,9.44h6.2c0.77,0,1.44,0.14,2.02,0.43
	c0.57,0.29,1.02,0.7,1.34,1.23c0.31,0.53,0.47,1.14,0.47,1.83c-0.01,0.69-0.17,1.3-0.49,1.83c-0.31,0.53-0.76,0.94-1.34,1.23
	c-0.58,0.29-1.24,0.43-2.01,0.43h-6.2V9.44z"/>
<path class="st2" d="M573.15,2.14c-8.11,0-14.71,6.6-14.71,14.71s6.6,14.71,14.71,14.71c8.11,0,14.71-6.6,14.71-14.71
	S581.26,2.14,573.15,2.14z M573.15,29.8c-7.14,0-12.94-5.81-12.94-12.95S566.01,3.9,573.15,3.9c7.14,0,12.94,5.81,12.94,12.95
	S580.29,29.8,573.15,29.8z"/>
</svg>
