<svg xmlns="http://www.w3.org/2000/svg" viewBox="0 0 32 32" width="24" height="24" style="fill: #101010;"><path d="M21.333 16.889l-13.631 9.087c-0.104 0.070-0.232 0.112-0.369 0.112-0.368 0-0.666-0.298-0.667-0.666v-18.843c0-0.368 0.299-0.666 0.667-0.666 0.138 0 0.266 0.042 0.372 0.113l-0.002-0.002 13.631 9.087v-8.444c0-0.736 0.597-1.333 1.333-1.333s1.333 0.597 1.333 1.333v0 18.667c0 0.736-0.597 1.333-1.333 1.333s-1.333-0.597-1.333-1.333v0-8.444zM9.333 10.316v11.368l8.525-5.684-8.525-5.684z"></path></svg>