<svg version="1.1" xmlns="http://www.w3.org/2000/svg" xmlns:xlink="http://www.w3.org/1999/xlink" viewBox="0 0 43 40" xml:space="preserve">
                      <style type="text/css">
                        .kg-st0{fill:#B0B9C1;}
                        .kg-st1{fill:#DFE3E8;}
                        .kg-st2{fill:#C0C7CC;}
                        .kg-st3{fill:#FFFFFF;}
                        .kg-st4{fill:#90F22A;}
                        .kg-st5{fill:#67BA06;}
                      </style>
                      <g class="SVG_ani">
                        <path id="XMLID_1351_" class="kg-st0" d="M39.7,0H3.3C1.5,0,0,1.5,0,3.3v1.9h43V3.3C43,1.5,41.5,0,39.7,0z"></path>
                        <path id="XMLID_1350_" class="kg-st1" d="M39.7,40.9H3.3c-1.8,0-3.3-1.5-3.3-3.3V5.2c0-1.8,1.5-3.3,3.3-3.3h36.5c1.8,0,3.3,1.5,3.3,3.3
                          v32.5C43,39.5,41.5,40.9,39.7,40.9z"></path>
                        <path id="XMLID_1353_" class="kg-st2" d="M35.5,36.1H7.5C6.1,36.1,5,35,5,33.6V8.4C5,7,6.1,5.9,7.5,5.9h28.1C36.9,5.9,38,7,38,8.4v25.2
                          C38,35,36.9,36.1,35.5,36.1z"></path>
                        <path id="XMLID_1352_" class="kg-st3" d="M34.5,36.1H8.5C7.1,36.1,6,35,6,33.6V11.4C6,10,7.1,8.9,8.5,8.9h26.1c1.4,0,2.5,1.1,2.5,2.5
                          v22.2C37,35,35.9,36.1,34.5,36.1z"></path>
                        <path id="XMLID_1355_" class="kg-st4" d="M21.8,14.5h-0.7c-0.5,0-1-0.4-1-1V8.9h2.6v4.6C22.8,14,22.4,14.5,21.8,14.5z"></path>
                        <g id="XMLID_1383_">
                          <path id="XMLID_1384_" class="kg-st5" d="M11.9,24c0-1.5,0.4-2.8,1.2-3.6c0.8-0.9,1.9-1.3,3.2-1.3c0.9,0,1.6,0.2,2.3,0.6
                            s1.2,1,1.6,1.7c0.4,0.7,0.5,1.6,0.5,2.5c0,0.9-0.2,1.8-0.6,2.5s-0.9,1.3-1.6,1.7c-0.7,0.4-1.5,0.6-2.3,0.6c-0.9,0-1.7-0.2-2.3-0.6
                            s-1.2-1-1.6-1.7S11.9,24.8,11.9,24z M13.2,24c0,1.1,0.3,2,0.9,2.6c0.6,0.6,1.4,1,2.3,1c0.9,0,1.7-0.3,2.3-1
                            c0.6-0.7,0.9-1.6,0.9-2.8c0-0.8-0.1-1.4-0.4-2c-0.3-0.6-0.6-1-1.1-1.3c-0.5-0.3-1-0.5-1.7-0.5c-0.9,0-1.6,0.3-2.3,0.9
                            C13.5,21.6,13.2,22.6,13.2,24z"></path>
                          <path id="XMLID_1387_" class="kg-st5" d="M22.4,28.5v-9.3h1.3l4.9,7.3v-7.3h1.2v9.3h-1.3l-4.9-7.3v7.3H22.4z"></path>
                        </g>
                      </g>
                  </svg>