<?xml version="1.0" encoding="utf-8"?>
<!-- Generator: Adobe Illustrator 23.0.0, SVG Export Plug-In . SVG Version: 6.00 Build 0)  -->
<svg version="1.1" xmlns="http://www.w3.org/2000/svg" xmlns:xlink="http://www.w3.org/1999/xlink" x="0px" y="0px"
	 viewBox="0 0 188 150" style="enable-background:new 0 0 188 150;" xml:space="preserve">
<style type="text/css">
	.st0{fill:url(#XMLID_20_);}
	.st1{fill:url(#XMLID_21_);}
	.st2{display:none;}
	.st3{display:inline;opacity:0.8;fill:#489BD3;enable-background:new    ;}
	.st4{display:inline;opacity:0.8;fill:url(#XMLID_22_);enable-background:new    ;}
	.st5{display:inline;opacity:0.8;fill:url(#XMLID_23_);enable-background:new    ;}
	.st6{display:inline;opacity:0.8;fill:url(#XMLID_24_);enable-background:new    ;}
	.st7{display:inline;opacity:0.8;fill:url(#XMLID_25_);enable-background:new    ;}
	.st8{display:inline;opacity:0.8;fill:url(#XMLID_26_);enable-background:new    ;}
	.st9{display:inline;opacity:0.8;fill:url(#XMLID_27_);enable-background:new    ;}
	.st10{display:inline;opacity:0.8;fill:url(#XMLID_28_);enable-background:new    ;}
	.st11{display:inline;opacity:0.8;fill:url(#XMLID_29_);enable-background:new    ;}
	.st12{display:inline;opacity:0.8;fill:url(#XMLID_30_);enable-background:new    ;}
	.st13{display:inline;opacity:0.8;fill:url(#XMLID_31_);enable-background:new    ;}
	.st14{fill:#DFE3E8;}
	.st15{fill:#C9CFD6;}
	.st16{fill:url(#XMLID_32_);}
	.st17{fill:url(#XMLID_33_);}
	.st18{opacity:0.6;}
	.st19{opacity:0.5;fill:url(#XMLID_34_);enable-background:new    ;}
	.st20{fill:url(#XMLID_35_);}
	.st21{opacity:0.8;fill:url(#XMLID_36_);enable-background:new    ;}
	.st22{fill:url(#XMLID_37_);}
	.st23{fill:url(#XMLID_38_);}
	.st24{opacity:0.5;fill:url(#XMLID_39_);enable-background:new    ;}
	.st25{fill:url(#XMLID_40_);}
	.st26{opacity:0.8;fill:url(#XMLID_41_);enable-background:new    ;}
	.st27{fill:url(#XMLID_42_);}
	.st28{fill:url(#XMLID_43_);}
	.st29{opacity:0.5;fill:url(#XMLID_44_);enable-background:new    ;}
	.st30{fill:url(#XMLID_45_);}
	.st31{opacity:0.8;fill:url(#XMLID_46_);enable-background:new    ;}
	.st32{fill:url(#XMLID_47_);}
	.st33{fill:url(#XMLID_48_);}
	.st34{opacity:0.5;fill:url(#XMLID_49_);enable-background:new    ;}
	.st35{fill:url(#XMLID_50_);}
	.st36{opacity:0.8;fill:url(#XMLID_51_);enable-background:new    ;}
	.st37{fill:url(#XMLID_52_);}
	.st38{fill:url(#XMLID_53_);}
	.st39{opacity:0.5;fill:url(#XMLID_54_);enable-background:new    ;}
	.st40{fill:url(#XMLID_55_);}
	.st41{opacity:0.8;fill:url(#XMLID_56_);enable-background:new    ;}
	.st42{fill:url(#XMLID_57_);}
	.st43{fill:url(#XMLID_58_);}
	.st44{opacity:0.5;fill:url(#XMLID_59_);enable-background:new    ;}
	.st45{fill:url(#XMLID_60_);}
	.st46{opacity:0.8;fill:url(#XMLID_61_);enable-background:new    ;}
	.st47{fill:url(#XMLID_62_);}
	.st48{fill:url(#XMLID_63_);}
	.st49{opacity:0.5;fill:url(#XMLID_64_);enable-background:new    ;}
	.st50{fill:url(#XMLID_65_);}
	.st51{opacity:0.8;fill:url(#XMLID_66_);enable-background:new    ;}
	.st52{fill:url(#XMLID_67_);}
	.st53{fill:url(#XMLID_68_);}
	.st54{fill:url(#XMLID_69_);}
	.st55{fill:url(#XMLID_70_);}
	.st56{opacity:0.5;fill:url(#XMLID_71_);enable-background:new    ;}
	.st57{fill:url(#XMLID_72_);}
	.st58{opacity:0.8;fill:url(#XMLID_73_);enable-background:new    ;}
	.st59{opacity:0.5;fill:url(#XMLID_74_);enable-background:new    ;}
	.st60{fill:url(#XMLID_75_);}
	.st61{opacity:0.8;fill:url(#XMLID_76_);enable-background:new    ;}
	.st62{fill:url(#XMLID_77_);}
	.st63{fill:url(#XMLID_78_);}
	.st64{fill:url(#XMLID_79_);}
	.st65{fill:url(#XMLID_80_);}
	.st66{opacity:0.4;}
	.st67{fill:#777C82;}
	.st68{fill:url(#XMLID_81_);}
	.st69{fill:url(#XMLID_82_);}
	.st70{fill:url(#XMLID_83_);}
	.st71{fill:url(#XMLID_84_);}
	.st72{fill:url(#XMLID_85_);}
	.st73{fill:url(#XMLID_86_);}
	.st74{fill:url(#XMLID_87_);}
	.st75{fill:url(#XMLID_88_);}
	.st76{fill:url(#XMLID_89_);}
	.st77{fill:url(#XMLID_90_);}
	.st78{fill:url(#XMLID_91_);}
	.st79{fill:url(#XMLID_92_);}
</style>
<g id="CC2">

		<linearGradient id="XMLID_20_" gradientUnits="userSpaceOnUse" x1="93.6" y1="26.5" x2="93.6" y2="131.9" gradientTransform="matrix(1 0 0 -1 0 152)">
		<stop  offset="0" style="stop-color:#585F65"/>
		<stop  offset="1" style="stop-color:#2A2F35"/>
	</linearGradient>
	<polygon id="XMLID_1887_" class="st0" points="162,20.1 25.2,20.1 25.2,119.5 101.5,125.5 162,119.5 	"/>

		<linearGradient id="XMLID_21_" gradientUnits="userSpaceOnUse" x1="93.6" y1="2.9716" x2="93.6" y2="32.5362" gradientTransform="matrix(1 0 0 -1 0 152)">
		<stop  offset="0" style="stop-color:#585F65"/>
		<stop  offset="1" style="stop-color:#2A2F35"/>
	</linearGradient>
	<rect id="XMLID_1886_" x="25.2" y="119.5" class="st1" width="136.8" height="29.6"/>
</g>
<g id="_x31_0" class="st2">
	<rect id="XMLID_1888_" x="40.4" y="10.9" class="st3" width="127.6" height="27.5"/>

		<linearGradient id="XMLID_22_" gradientUnits="userSpaceOnUse" x1="104.2" y1="3.2" x2="104.2" y2="113.5" gradientTransform="matrix(1 0 0 -1 0 152)">
		<stop  offset="0" style="stop-color:#347DC6"/>
		<stop  offset="1" style="stop-color:#024791"/>
	</linearGradient>
	<rect id="XMLID_1889_" x="40.4" y="38.5" class="st4" width="127.6" height="110.3"/>
</g>
<g id="_x39_" class="st2">
	<rect id="XMLID_2_" x="40.4" y="21.9" class="st3" width="127.6" height="27.5"/>

		<linearGradient id="XMLID_23_" gradientUnits="userSpaceOnUse" x1="104.2" y1="3.2" x2="104.2" y2="102.5" gradientTransform="matrix(1 0 0 -1 0 152)">
		<stop  offset="0" style="stop-color:#347DC6"/>
		<stop  offset="1" style="stop-color:#024791"/>
	</linearGradient>
	<rect id="XMLID_1_" x="40.4" y="49.5" class="st5" width="127.6" height="99.3"/>
</g>
<g id="_x38_" class="st2">
	<rect id="XMLID_4_" x="40.4" y="32.9" class="st3" width="127.6" height="27.5"/>

		<linearGradient id="XMLID_24_" gradientUnits="userSpaceOnUse" x1="104.2" y1="3.2" x2="104.2" y2="91.5" gradientTransform="matrix(1 0 0 -1 0 152)">
		<stop  offset="0" style="stop-color:#347DC6"/>
		<stop  offset="1" style="stop-color:#024791"/>
	</linearGradient>
	<rect id="XMLID_3_" x="40.4" y="60.5" class="st6" width="127.6" height="88.3"/>
</g>
<g id="_x37_" class="st2">
	<rect id="XMLID_6_" x="40.4" y="43.9" class="st3" width="127.6" height="27.5"/>

		<linearGradient id="XMLID_25_" gradientUnits="userSpaceOnUse" x1="104.2" y1="3.2" x2="104.2" y2="80.5" gradientTransform="matrix(1 0 0 -1 0 152)">
		<stop  offset="0" style="stop-color:#347DC6"/>
		<stop  offset="1" style="stop-color:#024791"/>
	</linearGradient>
	<rect id="XMLID_5_" x="40.4" y="71.5" class="st7" width="127.6" height="77.3"/>
</g>
<g id="_x36_" class="st2">
	<rect id="XMLID_8_" x="40.4" y="54.9" class="st3" width="127.6" height="27.5"/>

		<linearGradient id="XMLID_26_" gradientUnits="userSpaceOnUse" x1="104.2" y1="3.2" x2="104.2" y2="69.5" gradientTransform="matrix(1 0 0 -1 0 152)">
		<stop  offset="0" style="stop-color:#347DC6"/>
		<stop  offset="1" style="stop-color:#024791"/>
	</linearGradient>
	<rect id="XMLID_7_" x="40.4" y="82.5" class="st8" width="127.6" height="66.3"/>
</g>
<g id="_x35_" class="st2">
	<rect id="XMLID_10_" x="40.4" y="65.9" class="st3" width="127.6" height="27.5"/>

		<linearGradient id="XMLID_27_" gradientUnits="userSpaceOnUse" x1="104.2" y1="3.2" x2="104.2" y2="58.5" gradientTransform="matrix(1 0 0 -1 0 152)">
		<stop  offset="0" style="stop-color:#347DC6"/>
		<stop  offset="1" style="stop-color:#024791"/>
	</linearGradient>
	<rect id="XMLID_9_" x="40.4" y="93.5" class="st9" width="127.6" height="55.3"/>
</g>
<g id="_x34_" class="st2">
	<rect id="XMLID_12_" x="40.4" y="76.9" class="st3" width="127.6" height="27.5"/>

		<linearGradient id="XMLID_28_" gradientUnits="userSpaceOnUse" x1="104.2" y1="3.2" x2="104.2" y2="47.5" gradientTransform="matrix(1 0 0 -1 0 152)">
		<stop  offset="0" style="stop-color:#347DC6"/>
		<stop  offset="1" style="stop-color:#024791"/>
	</linearGradient>
	<rect id="XMLID_11_" x="40.4" y="104.5" class="st10" width="127.6" height="44.3"/>
</g>
<g id="_x33_" class="st2">
	<rect id="XMLID_14_" x="40.4" y="87.9" class="st3" width="127.6" height="27.5"/>

		<linearGradient id="XMLID_29_" gradientUnits="userSpaceOnUse" x1="104.2" y1="3.2" x2="104.2" y2="36.5" gradientTransform="matrix(1 0 0 -1 0 152)">
		<stop  offset="0" style="stop-color:#347DC6"/>
		<stop  offset="1" style="stop-color:#024791"/>
	</linearGradient>
	<rect id="XMLID_13_" x="40.4" y="115.5" class="st11" width="127.6" height="33.3"/>
</g>
<g id="_x32_" class="st2">
	<rect id="XMLID_16_" x="40.4" y="98.9" class="st3" width="127.6" height="27.5"/>

		<linearGradient id="XMLID_30_" gradientUnits="userSpaceOnUse" x1="104.2" y1="3.2" x2="104.2" y2="25.5" gradientTransform="matrix(1 0 0 -1 0 152)">
		<stop  offset="0" style="stop-color:#347DC6"/>
		<stop  offset="1" style="stop-color:#024791"/>
	</linearGradient>
	<rect id="XMLID_15_" x="40.4" y="126.5" class="st12" width="127.6" height="22.3"/>
</g>
<g id="_x31_" class="st2">
	<rect id="XMLID_18_" x="40.4" y="109.9" class="st3" width="127.6" height="27.5"/>

		<linearGradient id="XMLID_31_" gradientUnits="userSpaceOnUse" x1="104.2" y1="3.2" x2="104.2" y2="14.5" gradientTransform="matrix(1 0 0 -1 0 152)">
		<stop  offset="0" style="stop-color:#347DC6"/>
		<stop  offset="1" style="stop-color:#024791"/>
	</linearGradient>
	<rect id="XMLID_17_" x="40.4" y="137.5" class="st13" width="127.6" height="11.3"/>
</g>
<g id="_x30_">
</g>
<g id="CC1">
	<g id="XMLID_2057_">
		<rect id="XMLID_2069_" y="27" class="st14" width="47" height="47"/>
		<polygon id="XMLID_2068_" class="st15" points="46.5,27 46.5,73.5 0,73.5 0,74 47,74 47,27 		"/>

			<linearGradient id="XMLID_32_" gradientUnits="userSpaceOnUse" x1="23.5" y1="123" x2="23.5" y2="80" gradientTransform="matrix(1 0 0 -1 0 152)">
			<stop  offset="0" style="stop-color:#9DA7B2"/>
			<stop  offset="1" style="stop-color:#FFFFFF"/>
		</linearGradient>
		<path id="XMLID_2065_" class="st16" d="M42.5,72h-38C3.1,72,2,70.9,2,69.5v-38C2,30.1,3.1,29,4.5,29h38c1.4,0,2.5,1.1,2.5,2.5v38
			C45,70.9,43.9,72,42.5,72z M4.5,30.1c-0.8,0-1.4,0.6-1.4,1.4v38c0,0.8,0.6,1.4,1.4,1.4h38c0.8,0,1.4-0.6,1.4-1.4v-38
			c0-0.8-0.6-1.4-1.4-1.4H4.5z"/>

			<linearGradient id="XMLID_33_" gradientUnits="userSpaceOnUse" x1="23.5" y1="80.5" x2="23.5" y2="122.454" gradientTransform="matrix(1 0 0 -1 0 152)">
			<stop  offset="0" style="stop-color:#9DA7B2"/>
			<stop  offset="1" style="stop-color:#FFFFFF"/>
		</linearGradient>
		<path id="XMLID_2062_" class="st17" d="M42.5,29.5h-38c-1.1,0-2,0.9-2,2v38c0,1.1,0.9,2,2,2h38c1.1,0,2-0.9,2-2v-38
			C44.5,30.4,43.6,29.5,42.5,29.5z M43.9,69.5c0,0.8-0.6,1.4-1.4,1.4h-38c-0.8,0-1.4-0.6-1.4-1.4v-38c0-0.8,0.6-1.4,1.4-1.4h38
			c0.8,0,1.4,0.6,1.4,1.4V69.5z"/>
		<g id="XMLID_2058_" class="st18">

				<linearGradient id="XMLID_34_" gradientUnits="userSpaceOnUse" x1="3.7" y1="101.5" x2="43.364" y2="101.5" gradientTransform="matrix(1 0 0 -1 0 152)">
				<stop  offset="0" style="stop-color:#7F8595"/>
				<stop  offset="1" style="stop-color:#D7D9E6"/>
			</linearGradient>
			<circle id="XMLID_2061_" class="st19" cx="23.5" cy="50.5" r="19.8"/>

				<radialGradient id="XMLID_35_" cx="36.4823" cy="112.8441" r="15.2021" gradientTransform="matrix(1 0 0 -1 0 152)" gradientUnits="userSpaceOnUse">
				<stop  offset="0" style="stop-color:#FFFFFF"/>
				<stop  offset="1" style="stop-color:#FFFFFF;stop-opacity:0"/>
			</radialGradient>
			<circle id="XMLID_2060_" class="st20" cx="23.5" cy="50.5" r="19.8"/>

				<linearGradient id="XMLID_36_" gradientUnits="userSpaceOnUse" x1="23.5" y1="81.6525" x2="23.5" y2="121.3166" gradientTransform="matrix(1 0 0 -1 0 152)">
				<stop  offset="0" style="stop-color:#696B74"/>
				<stop  offset="0.5538" style="stop-color:#696B74;stop-opacity:0"/>
			</linearGradient>
			<circle id="XMLID_2059_" class="st21" cx="23.5" cy="50.5" r="19.8"/>
		</g>
	</g>
	<g id="XMLID_2044_">
		<rect id="XMLID_2056_" y="27" class="st14" width="47" height="47"/>
		<polygon id="XMLID_2055_" class="st15" points="46.5,27 46.5,73.5 0,73.5 0,74 47,74 47,27 		"/>

			<linearGradient id="XMLID_37_" gradientUnits="userSpaceOnUse" x1="23.5" y1="123" x2="23.5" y2="80" gradientTransform="matrix(1 0 0 -1 0 152)">
			<stop  offset="0" style="stop-color:#9DA7B2"/>
			<stop  offset="1" style="stop-color:#FFFFFF"/>
		</linearGradient>
		<path id="XMLID_2052_" class="st22" d="M42.5,72h-38C3.1,72,2,70.9,2,69.5v-38C2,30.1,3.1,29,4.5,29h38c1.4,0,2.5,1.1,2.5,2.5v38
			C45,70.9,43.9,72,42.5,72z M4.5,30.1c-0.8,0-1.4,0.6-1.4,1.4v38c0,0.8,0.6,1.4,1.4,1.4h38c0.8,0,1.4-0.6,1.4-1.4v-38
			c0-0.8-0.6-1.4-1.4-1.4H4.5z"/>

			<linearGradient id="XMLID_38_" gradientUnits="userSpaceOnUse" x1="23.5" y1="80.5" x2="23.5" y2="122.454" gradientTransform="matrix(1 0 0 -1 0 152)">
			<stop  offset="0" style="stop-color:#9DA7B2"/>
			<stop  offset="1" style="stop-color:#FFFFFF"/>
		</linearGradient>
		<path id="XMLID_2049_" class="st23" d="M42.5,29.5h-38c-1.1,0-2,0.9-2,2v38c0,1.1,0.9,2,2,2h38c1.1,0,2-0.9,2-2v-38
			C44.5,30.4,43.6,29.5,42.5,29.5z M43.9,69.5c0,0.8-0.6,1.4-1.4,1.4h-38c-0.8,0-1.4-0.6-1.4-1.4v-38c0-0.8,0.6-1.4,1.4-1.4h38
			c0.8,0,1.4,0.6,1.4,1.4V69.5z"/>
		<g id="XMLID_2045_" class="st18">

				<linearGradient id="XMLID_39_" gradientUnits="userSpaceOnUse" x1="3.7" y1="101.5" x2="43.364" y2="101.5" gradientTransform="matrix(1 0 0 -1 0 152)">
				<stop  offset="0" style="stop-color:#7F8595"/>
				<stop  offset="1" style="stop-color:#D7D9E6"/>
			</linearGradient>
			<circle id="XMLID_2048_" class="st24" cx="23.5" cy="50.5" r="19.8"/>

				<radialGradient id="XMLID_40_" cx="36.4823" cy="112.8441" r="15.2021" gradientTransform="matrix(1 0 0 -1 0 152)" gradientUnits="userSpaceOnUse">
				<stop  offset="0" style="stop-color:#FFFFFF"/>
				<stop  offset="1" style="stop-color:#FFFFFF;stop-opacity:0"/>
			</radialGradient>
			<circle id="XMLID_2047_" class="st25" cx="23.5" cy="50.5" r="19.8"/>

				<linearGradient id="XMLID_41_" gradientUnits="userSpaceOnUse" x1="23.5" y1="81.6525" x2="23.5" y2="121.3166" gradientTransform="matrix(1 0 0 -1 0 152)">
				<stop  offset="0" style="stop-color:#696B74"/>
				<stop  offset="0.5538" style="stop-color:#696B74;stop-opacity:0"/>
			</linearGradient>
			<circle id="XMLID_2046_" class="st26" cx="23.5" cy="50.5" r="19.8"/>
		</g>
	</g>
	<g id="XMLID_2005_">
		<rect id="XMLID_2017_" x="140.5" y="27" class="st14" width="47" height="47"/>
		<polygon id="XMLID_2016_" class="st15" points="186.9,27 186.9,73.5 140.5,73.5 140.5,74 187.5,74 187.5,27 		"/>

			<linearGradient id="XMLID_42_" gradientUnits="userSpaceOnUse" x1="164" y1="123" x2="164" y2="80" gradientTransform="matrix(1 0 0 -1 0 152)">
			<stop  offset="0" style="stop-color:#9DA7B2"/>
			<stop  offset="1" style="stop-color:#FFFFFF"/>
		</linearGradient>
		<path id="XMLID_2013_" class="st27" d="M183,72h-38c-1.4,0-2.5-1.1-2.5-2.5v-38c0-1.4,1.1-2.5,2.5-2.5h38c1.4,0,2.5,1.1,2.5,2.5
			v38C185.5,70.9,184.4,72,183,72z M144.9,30.1c-0.8,0-1.4,0.6-1.4,1.4v38c0,0.8,0.6,1.4,1.4,1.4h38c0.8,0,1.4-0.6,1.4-1.4v-38
			c0-0.8-0.6-1.4-1.4-1.4H144.9z"/>

			<linearGradient id="XMLID_43_" gradientUnits="userSpaceOnUse" x1="164" y1="80.5" x2="164" y2="122.4541" gradientTransform="matrix(1 0 0 -1 0 152)">
			<stop  offset="0" style="stop-color:#9DA7B2"/>
			<stop  offset="1" style="stop-color:#FFFFFF"/>
		</linearGradient>
		<path id="XMLID_2010_" class="st28" d="M183,29.5h-38c-1.1,0-2,0.9-2,2v38c0,1.1,0.9,2,2,2h38c1.1,0,2-0.9,2-2v-38
			C184.9,30.4,184.1,29.5,183,29.5z M184.4,69.5c0,0.8-0.6,1.4-1.4,1.4h-38c-0.8,0-1.4-0.6-1.4-1.4v-38c0-0.8,0.6-1.4,1.4-1.4h38
			c0.8,0,1.4,0.6,1.4,1.4V69.5z"/>
		<g id="XMLID_2006_" class="st18">

				<linearGradient id="XMLID_44_" gradientUnits="userSpaceOnUse" x1="144.127" y1="101.5" x2="183.7911" y2="101.5" gradientTransform="matrix(1 0 0 -1 0 152)">
				<stop  offset="0" style="stop-color:#7F8595"/>
				<stop  offset="1" style="stop-color:#D7D9E6"/>
			</linearGradient>
			<circle id="XMLID_2009_" class="st29" cx="164" cy="50.5" r="19.8"/>

				<radialGradient id="XMLID_45_" cx="176.9413" cy="112.8441" r="15.2021" gradientTransform="matrix(1 0 0 -1 0 152)" gradientUnits="userSpaceOnUse">
				<stop  offset="0" style="stop-color:#FFFFFF"/>
				<stop  offset="1" style="stop-color:#FFFFFF;stop-opacity:0"/>
			</radialGradient>
			<circle id="XMLID_2008_" class="st30" cx="164" cy="50.5" r="19.8"/>

				<linearGradient id="XMLID_46_" gradientUnits="userSpaceOnUse" x1="164" y1="81.6526" x2="164" y2="121.3166" gradientTransform="matrix(1 0 0 -1 0 152)">
				<stop  offset="0" style="stop-color:#696B74"/>
				<stop  offset="0.5538" style="stop-color:#696B74;stop-opacity:0"/>
			</linearGradient>
			<circle id="XMLID_2007_" class="st31" cx="164" cy="50.5" r="19.8"/>
		</g>
	</g>
	<g id="XMLID_1992_">
		<rect id="XMLID_2004_" y="74" class="st14" width="47" height="47"/>
		<polygon id="XMLID_2003_" class="st15" points="46.5,74 46.5,120.5 0,120.5 0,121 47,121 47,74 		"/>

			<linearGradient id="XMLID_47_" gradientUnits="userSpaceOnUse" x1="23.5" y1="76" x2="23.5" y2="33" gradientTransform="matrix(1 0 0 -1 0 152)">
			<stop  offset="0" style="stop-color:#9DA7B2"/>
			<stop  offset="1" style="stop-color:#FFFFFF"/>
		</linearGradient>
		<path id="XMLID_2000_" class="st32" d="M42.5,119h-38c-1.4,0-2.5-1.1-2.5-2.5v-38C2,77.1,3.1,76,4.5,76h38c1.4,0,2.5,1.1,2.5,2.5
			v38C45,117.9,43.9,119,42.5,119z M4.5,77.1c-0.8,0-1.4,0.6-1.4,1.4v38c0,0.8,0.6,1.4,1.4,1.4h38c0.8,0,1.4-0.6,1.4-1.4v-38
			c0-0.8-0.6-1.4-1.4-1.4H4.5z"/>

			<linearGradient id="XMLID_48_" gradientUnits="userSpaceOnUse" x1="23.5" y1="33.5" x2="23.5" y2="75.454" gradientTransform="matrix(1 0 0 -1 0 152)">
			<stop  offset="0" style="stop-color:#9DA7B2"/>
			<stop  offset="1" style="stop-color:#FFFFFF"/>
		</linearGradient>
		<path id="XMLID_1997_" class="st33" d="M42.5,76.5h-38c-1.1,0-2,0.9-2,2v38c0,1.1,0.9,2,2,2h38c1.1,0,2-0.9,2-2v-38
			C44.5,77.4,43.6,76.5,42.5,76.5z M43.9,116.5c0,0.8-0.6,1.4-1.4,1.4h-38c-0.8,0-1.4-0.6-1.4-1.4v-38c0-0.8,0.6-1.4,1.4-1.4h38
			c0.8,0,1.4,0.6,1.4,1.4V116.5z"/>
		<g id="XMLID_1993_" class="st18">

				<linearGradient id="XMLID_49_" gradientUnits="userSpaceOnUse" x1="3.7" y1="54.5" x2="43.364" y2="54.5" gradientTransform="matrix(1 0 0 -1 0 152)">
				<stop  offset="0" style="stop-color:#7F8595"/>
				<stop  offset="1" style="stop-color:#D7D9E6"/>
			</linearGradient>
			<circle id="XMLID_1996_" class="st34" cx="23.5" cy="97.5" r="19.8"/>

				<radialGradient id="XMLID_50_" cx="36.4823" cy="65.8441" r="15.2021" gradientTransform="matrix(1 0 0 -1 0 152)" gradientUnits="userSpaceOnUse">
				<stop  offset="0" style="stop-color:#FFFFFF"/>
				<stop  offset="1" style="stop-color:#FFFFFF;stop-opacity:0"/>
			</radialGradient>
			<circle id="XMLID_1995_" class="st35" cx="23.5" cy="97.5" r="19.8"/>

				<linearGradient id="XMLID_51_" gradientUnits="userSpaceOnUse" x1="23.5" y1="34.6526" x2="23.5" y2="74.3166" gradientTransform="matrix(1 0 0 -1 0 152)">
				<stop  offset="0" style="stop-color:#696B74"/>
				<stop  offset="0.5538" style="stop-color:#696B74;stop-opacity:0"/>
			</linearGradient>
			<circle id="XMLID_1994_" class="st36" cx="23.5" cy="97.5" r="19.8"/>
		</g>
	</g>
	<g id="XMLID_1979_">
		<rect id="XMLID_1991_" y="74" class="st14" width="47" height="47"/>
		<polygon id="XMLID_1990_" class="st15" points="46.5,74 46.5,120.5 0,120.5 0,121 47,121 47,74 		"/>

			<linearGradient id="XMLID_52_" gradientUnits="userSpaceOnUse" x1="23.5" y1="76" x2="23.5" y2="33" gradientTransform="matrix(1 0 0 -1 0 152)">
			<stop  offset="0" style="stop-color:#9DA7B2"/>
			<stop  offset="1" style="stop-color:#FFFFFF"/>
		</linearGradient>
		<path id="XMLID_1987_" class="st37" d="M42.5,119h-38c-1.4,0-2.5-1.1-2.5-2.5v-38C2,77.1,3.1,76,4.5,76h38c1.4,0,2.5,1.1,2.5,2.5
			v38C45,117.9,43.9,119,42.5,119z M4.5,77.1c-0.8,0-1.4,0.6-1.4,1.4v38c0,0.8,0.6,1.4,1.4,1.4h38c0.8,0,1.4-0.6,1.4-1.4v-38
			c0-0.8-0.6-1.4-1.4-1.4H4.5z"/>

			<linearGradient id="XMLID_53_" gradientUnits="userSpaceOnUse" x1="23.5" y1="33.5" x2="23.5" y2="75.454" gradientTransform="matrix(1 0 0 -1 0 152)">
			<stop  offset="0" style="stop-color:#9DA7B2"/>
			<stop  offset="1" style="stop-color:#FFFFFF"/>
		</linearGradient>
		<path id="XMLID_1984_" class="st38" d="M42.5,76.5h-38c-1.1,0-2,0.9-2,2v38c0,1.1,0.9,2,2,2h38c1.1,0,2-0.9,2-2v-38
			C44.5,77.4,43.6,76.5,42.5,76.5z M43.9,116.5c0,0.8-0.6,1.4-1.4,1.4h-38c-0.8,0-1.4-0.6-1.4-1.4v-38c0-0.8,0.6-1.4,1.4-1.4h38
			c0.8,0,1.4,0.6,1.4,1.4V116.5z"/>
		<g id="XMLID_1980_" class="st18">

				<linearGradient id="XMLID_54_" gradientUnits="userSpaceOnUse" x1="3.7" y1="54.5" x2="43.364" y2="54.5" gradientTransform="matrix(1 0 0 -1 0 152)">
				<stop  offset="0" style="stop-color:#7F8595"/>
				<stop  offset="1" style="stop-color:#D7D9E6"/>
			</linearGradient>
			<circle id="XMLID_1983_" class="st39" cx="23.5" cy="97.5" r="19.8"/>

				<radialGradient id="XMLID_55_" cx="36.4823" cy="65.8441" r="15.2021" gradientTransform="matrix(1 0 0 -1 0 152)" gradientUnits="userSpaceOnUse">
				<stop  offset="0" style="stop-color:#FFFFFF"/>
				<stop  offset="1" style="stop-color:#FFFFFF;stop-opacity:0"/>
			</radialGradient>
			<circle id="XMLID_1982_" class="st40" cx="23.5" cy="97.5" r="19.8"/>

				<linearGradient id="XMLID_56_" gradientUnits="userSpaceOnUse" x1="23.5" y1="34.6526" x2="23.5" y2="74.3166" gradientTransform="matrix(1 0 0 -1 0 152)">
				<stop  offset="0" style="stop-color:#696B74"/>
				<stop  offset="0.5538" style="stop-color:#696B74;stop-opacity:0"/>
			</linearGradient>
			<circle id="XMLID_1981_" class="st41" cx="23.5" cy="97.5" r="19.8"/>
		</g>
	</g>
	<g id="XMLID_1940_">
		<rect id="XMLID_1952_" x="140.5" y="74" class="st14" width="47" height="47"/>
		<polygon id="XMLID_1951_" class="st15" points="186.9,74 186.9,120.5 140.5,120.5 140.5,121 187.5,121 187.5,74 		"/>

			<linearGradient id="XMLID_57_" gradientUnits="userSpaceOnUse" x1="164" y1="76" x2="164" y2="33" gradientTransform="matrix(1 0 0 -1 0 152)">
			<stop  offset="0" style="stop-color:#9DA7B2"/>
			<stop  offset="1" style="stop-color:#FFFFFF"/>
		</linearGradient>
		<path id="XMLID_1948_" class="st42" d="M183,119h-38c-1.4,0-2.5-1.1-2.5-2.5v-38c0-1.4,1.1-2.5,2.5-2.5h38c1.4,0,2.5,1.1,2.5,2.5
			v38C185.5,117.9,184.4,119,183,119z M144.9,77.1c-0.8,0-1.4,0.6-1.4,1.4v38c0,0.8,0.6,1.4,1.4,1.4h38c0.8,0,1.4-0.6,1.4-1.4v-38
			c0-0.8-0.6-1.4-1.4-1.4H144.9z"/>

			<linearGradient id="XMLID_58_" gradientUnits="userSpaceOnUse" x1="164" y1="33.5" x2="164" y2="75.4541" gradientTransform="matrix(1 0 0 -1 0 152)">
			<stop  offset="0" style="stop-color:#9DA7B2"/>
			<stop  offset="1" style="stop-color:#FFFFFF"/>
		</linearGradient>
		<path id="XMLID_1945_" class="st43" d="M183,76.5h-38c-1.1,0-2,0.9-2,2v38c0,1.1,0.9,2,2,2h38c1.1,0,2-0.9,2-2v-38
			C184.9,77.4,184.1,76.5,183,76.5z M184.4,116.5c0,0.8-0.6,1.4-1.4,1.4h-38c-0.8,0-1.4-0.6-1.4-1.4v-38c0-0.8,0.6-1.4,1.4-1.4h38
			c0.8,0,1.4,0.6,1.4,1.4V116.5z"/>
		<g id="XMLID_1941_" class="st18">

				<linearGradient id="XMLID_59_" gradientUnits="userSpaceOnUse" x1="144.127" y1="54.5" x2="183.7911" y2="54.5" gradientTransform="matrix(1 0 0 -1 0 152)">
				<stop  offset="0" style="stop-color:#7F8595"/>
				<stop  offset="1" style="stop-color:#D7D9E6"/>
			</linearGradient>
			<circle id="XMLID_1944_" class="st44" cx="164" cy="97.5" r="19.8"/>

				<radialGradient id="XMLID_60_" cx="176.9413" cy="65.8441" r="15.2021" gradientTransform="matrix(1 0 0 -1 0 152)" gradientUnits="userSpaceOnUse">
				<stop  offset="0" style="stop-color:#FFFFFF"/>
				<stop  offset="1" style="stop-color:#FFFFFF;stop-opacity:0"/>
			</radialGradient>
			<circle id="XMLID_1943_" class="st45" cx="164" cy="97.5" r="19.8"/>

				<linearGradient id="XMLID_61_" gradientUnits="userSpaceOnUse" x1="164" y1="34.6526" x2="164" y2="74.3167" gradientTransform="matrix(1 0 0 -1 0 152)">
				<stop  offset="0" style="stop-color:#696B74"/>
				<stop  offset="0.5538" style="stop-color:#696B74;stop-opacity:0"/>
			</linearGradient>
			<circle id="XMLID_1942_" class="st46" cx="164" cy="97.5" r="19.8"/>
		</g>
	</g>
	<g id="XMLID_1926_">
		<rect id="XMLID_1938_" y="121" class="st14" width="47" height="28.8"/>
		<polygon id="XMLID_1937_" class="st15" points="46.5,121 46.5,149.3 0,149.3 0,149.9 47,149.9 47,121 		"/>

			<linearGradient id="XMLID_62_" gradientUnits="userSpaceOnUse" x1="23.5" y1="29" x2="23.5" y2="4.1" gradientTransform="matrix(1 0 0 -1 0 152)">
			<stop  offset="0" style="stop-color:#9DA7B2"/>
			<stop  offset="1" style="stop-color:#FFFFFF"/>
		</linearGradient>
		<path id="XMLID_1934_" class="st47" d="M42.5,147.9h-38c-1.4,0-2.5-1.1-2.5-2.5v-19.9c0-1.4,1.1-2.5,2.5-2.5h38
			c1.4,0,2.5,1.1,2.5,2.5v19.9C45,146.8,43.9,147.9,42.5,147.9z M4.5,124.1c-0.8,0-1.4,0.6-1.4,1.4v19.9c0,0.8,0.6,1.4,1.4,1.4h38
			c0.8,0,1.4-0.6,1.4-1.4v-19.9c0-0.8-0.6-1.4-1.4-1.4L4.5,124.1z"/>

			<linearGradient id="XMLID_63_" gradientUnits="userSpaceOnUse" x1="23.5" y1="4.6627" x2="23.5" y2="28.4617" gradientTransform="matrix(1 0 0 -1 0 152)">
			<stop  offset="0" style="stop-color:#9DA7B2"/>
			<stop  offset="1" style="stop-color:#FFFFFF"/>
		</linearGradient>
		<path id="XMLID_1931_" class="st48" d="M42.5,123.5h-38c-1.1,0-2,0.9-2,2v19.9c0,1.1,0.9,2,2,2h38c1.1,0,2-0.9,2-2v-19.9
			C44.5,124.4,43.6,123.5,42.5,123.5z M43.9,145.4c0,0.8-0.6,1.4-1.4,1.4h-38c-0.8,0-1.4-0.6-1.4-1.4v-19.9c0-0.8,0.6-1.4,1.4-1.4
			h38c0.8,0,1.4,0.6,1.4,1.4V145.4z"/>
		<g id="XMLID_1927_" class="st18">

				<linearGradient id="XMLID_64_" gradientUnits="userSpaceOnUse" x1="3.7" y1="14.7139" x2="43.3641" y2="14.7139" gradientTransform="matrix(1 0 0 -1 0 152)">
				<stop  offset="0" style="stop-color:#7F8595"/>
				<stop  offset="1" style="stop-color:#D7D9E6"/>
			</linearGradient>
			<path id="XMLID_1930_" class="st49" d="M43.3,144.5c0,11-8.9,1.7-19.8,1.7s-19.8,9.3-19.8-1.7s8.9-19.8,19.8-19.8
				S43.3,133.6,43.3,144.5z"/>

				<radialGradient id="XMLID_65_" cx="36.4823" cy="21.9388" r="9.9729" gradientTransform="matrix(1 0 0 -1 0 152)" gradientUnits="userSpaceOnUse">
				<stop  offset="0" style="stop-color:#FFFFFF"/>
				<stop  offset="1" style="stop-color:#FFFFFF;stop-opacity:0"/>
			</radialGradient>
			<path id="XMLID_1929_" class="st50" d="M43.3,144.5c0,11-8.9,1.7-19.8,1.7s-19.8,9.3-19.8-1.7s8.9-19.8,19.8-19.8
				S43.3,133.6,43.3,144.5z"/>

				<linearGradient id="XMLID_66_" gradientUnits="userSpaceOnUse" x1="23.5" y1="2.1278" x2="23.5" y2="27.3" gradientTransform="matrix(1 0 0 -1 0 152)">
				<stop  offset="0" style="stop-color:#696B74"/>
				<stop  offset="0.5538" style="stop-color:#696B74;stop-opacity:0"/>
			</linearGradient>
			<path id="XMLID_1928_" class="st51" d="M43.3,144.5c0,11-8.9,1.7-19.8,1.7s-19.8,9.3-19.8-1.7s8.9-19.8,19.8-19.8
				S43.3,133.6,43.3,144.5z"/>
		</g>
	</g>
	<rect id="XMLID_1925_" y="121" class="st14" width="47" height="28.8"/>
	<polygon id="XMLID_1924_" class="st15" points="46.5,121 46.5,149.3 0,149.3 0,149.9 47,149.9 47,121 	"/>

		<linearGradient id="XMLID_67_" gradientUnits="userSpaceOnUse" x1="23.5" y1="29" x2="23.5" y2="4.1" gradientTransform="matrix(1 0 0 -1 0 152)">
		<stop  offset="0" style="stop-color:#9DA7B2"/>
		<stop  offset="1" style="stop-color:#FFFFFF"/>
	</linearGradient>
	<path id="XMLID_1921_" class="st52" d="M42.5,147.9h-38c-1.4,0-2.5-1.1-2.5-2.5v-19.9c0-1.4,1.1-2.5,2.5-2.5h38
		c1.4,0,2.5,1.1,2.5,2.5v19.9C45,146.8,43.9,147.9,42.5,147.9z M4.5,124.1c-0.8,0-1.4,0.6-1.4,1.4v19.9c0,0.8,0.6,1.4,1.4,1.4h38
		c0.8,0,1.4-0.6,1.4-1.4v-19.9c0-0.8-0.6-1.4-1.4-1.4L4.5,124.1z"/>

		<linearGradient id="XMLID_68_" gradientUnits="userSpaceOnUse" x1="23.5" y1="4.6627" x2="23.5" y2="28.4617" gradientTransform="matrix(1 0 0 -1 0 152)">
		<stop  offset="0" style="stop-color:#9DA7B2"/>
		<stop  offset="1" style="stop-color:#FFFFFF"/>
	</linearGradient>
	<path id="XMLID_1918_" class="st53" d="M42.5,123.5h-38c-1.1,0-2,0.9-2,2v19.9c0,1.1,0.9,2,2,2h38c1.1,0,2-0.9,2-2v-19.9
		C44.5,124.4,43.6,123.5,42.5,123.5z M43.9,145.4c0,0.8-0.6,1.4-1.4,1.4h-38c-0.8,0-1.4-0.6-1.4-1.4v-19.9c0-0.8,0.6-1.4,1.4-1.4h38
		c0.8,0,1.4,0.6,1.4,1.4V145.4z"/>
	<polygon id="XMLID_1908_" class="st15" points="140.5,121 140.5,149.3 94,149.3 94,149.9 141,149.9 141,121 	"/>
	<rect id="XMLID_1901_" x="140.5" y="121" class="st14" width="47" height="28.8"/>
	<polygon id="XMLID_1900_" class="st15" points="186.9,121 186.9,149.3 140.5,149.3 140.5,149.9 187.5,149.9 187.5,121 	"/>

		<linearGradient id="XMLID_69_" gradientUnits="userSpaceOnUse" x1="164" y1="29" x2="164" y2="4.1" gradientTransform="matrix(1 0 0 -1 0 152)">
		<stop  offset="0" style="stop-color:#9DA7B2"/>
		<stop  offset="1" style="stop-color:#FFFFFF"/>
	</linearGradient>
	<path id="XMLID_1897_" class="st54" d="M183,147.9h-38c-1.4,0-2.5-1.1-2.5-2.5v-19.9c0-1.4,1.1-2.5,2.5-2.5h38
		c1.4,0,2.5,1.1,2.5,2.5v19.9C185.5,146.8,184.4,147.9,183,147.9z M144.9,124.1c-0.8,0-1.4,0.6-1.4,1.4v19.9c0,0.8,0.6,1.4,1.4,1.4
		h38c0.8,0,1.4-0.6,1.4-1.4v-19.9c0-0.8-0.6-1.4-1.4-1.4L144.9,124.1z"/>

		<linearGradient id="XMLID_70_" gradientUnits="userSpaceOnUse" x1="164" y1="4.6628" x2="164" y2="28.4617" gradientTransform="matrix(1 0 0 -1 0 152)">
		<stop  offset="0" style="stop-color:#9DA7B2"/>
		<stop  offset="1" style="stop-color:#FFFFFF"/>
	</linearGradient>
	<path id="XMLID_1894_" class="st55" d="M183,123.5h-38c-1.1,0-2,0.9-2,2v19.9c0,1.1,0.9,2,2,2h38c1.1,0,2-0.9,2-2v-19.9
		C184.9,124.4,184.1,123.5,183,123.5z M184.4,145.4c0,0.8-0.6,1.4-1.4,1.4h-38c-0.8,0-1.4-0.6-1.4-1.4v-19.9c0-0.8,0.6-1.4,1.4-1.4
		h38c0.8,0,1.4,0.6,1.4,1.4V145.4z"/>
	<g id="XMLID_1890_" class="st18">

			<linearGradient id="XMLID_71_" gradientUnits="userSpaceOnUse" x1="3.7" y1="17" x2="43.3641" y2="17" gradientTransform="matrix(1 0 0 -1 0 152)">
			<stop  offset="0" style="stop-color:#7F8595"/>
			<stop  offset="1" style="stop-color:#D7D9E6"/>
		</linearGradient>
		<ellipse id="XMLID_1893_" class="st56" cx="23.5" cy="135" rx="19.8" ry="10.3"/>

			<radialGradient id="XMLID_72_" cx="36.4823" cy="223.4738" r="15.2021" gradientTransform="matrix(1 0 0 -0.5205 0 245.3975)" gradientUnits="userSpaceOnUse">
			<stop  offset="0" style="stop-color:#FFFFFF"/>
			<stop  offset="1" style="stop-color:#FFFFFF;stop-opacity:0"/>
		</radialGradient>
		<ellipse id="XMLID_1892_" class="st57" cx="23.5" cy="135" rx="19.8" ry="10.3"/>

			<linearGradient id="XMLID_73_" gradientUnits="userSpaceOnUse" x1="23.5" y1="6.6734" x2="23.5" y2="27.3167" gradientTransform="matrix(1 0 0 -1 0 152)">
			<stop  offset="0" style="stop-color:#696B74"/>
			<stop  offset="0.5538" style="stop-color:#696B74;stop-opacity:0"/>
		</linearGradient>
		<ellipse id="XMLID_1891_" class="st58" cx="23.5" cy="135" rx="19.8" ry="10.3"/>
	</g>
	<g id="XMLID_1878_" class="st18">

			<linearGradient id="XMLID_74_" gradientUnits="userSpaceOnUse" x1="144.127" y1="17" x2="183.7911" y2="17" gradientTransform="matrix(1 0 0 -1 0 152)">
			<stop  offset="0" style="stop-color:#7F8595"/>
			<stop  offset="1" style="stop-color:#D7D9E6"/>
		</linearGradient>
		<ellipse id="XMLID_1881_" class="st59" cx="164" cy="135" rx="19.8" ry="10.3"/>

			<radialGradient id="XMLID_75_" cx="176.9413" cy="223.4739" r="15.2021" gradientTransform="matrix(1 0 0 -0.5205 0 245.3975)" gradientUnits="userSpaceOnUse">
			<stop  offset="0" style="stop-color:#FFFFFF"/>
			<stop  offset="1" style="stop-color:#FFFFFF;stop-opacity:0"/>
		</radialGradient>
		<ellipse id="XMLID_1880_" class="st60" cx="164" cy="135" rx="19.8" ry="10.3"/>

			<linearGradient id="XMLID_76_" gradientUnits="userSpaceOnUse" x1="164" y1="6.6734" x2="164" y2="27.3167" gradientTransform="matrix(1 0 0 -1 0 152)">
			<stop  offset="0" style="stop-color:#696B74"/>
			<stop  offset="0.5538" style="stop-color:#696B74;stop-opacity:0"/>
		</linearGradient>
		<ellipse id="XMLID_1879_" class="st61" cx="164" cy="135" rx="19.8" ry="10.3"/>
	</g>

		<linearGradient id="XMLID_77_" gradientUnits="userSpaceOnUse" x1="70.5" y1="124.9015" x2="70.5" y2="149.92" gradientTransform="matrix(1 0 0 -1 0 152)">
		<stop  offset="0" style="stop-color:#9DA7B2"/>
		<stop  offset="1" style="stop-color:#DFE3E8"/>
	</linearGradient>
	<polygon id="XMLID_1877_" class="st62" points="50.4,13.1 47,27 94,27 94,13.1 	"/>

		<linearGradient id="XMLID_78_" gradientUnits="userSpaceOnUse" x1="72.2" y1="124.9015" x2="72.2" y2="149.92" gradientTransform="matrix(1 0 0 -1 0 152)">
		<stop  offset="0" style="stop-color:#9DA7B2"/>
		<stop  offset="1" style="stop-color:#DFE3E8"/>
	</linearGradient>
	<polygon id="XMLID_1876_" class="st63" points="50.4,13.1 94,13.1 94,2.2 53.1,2.2 	"/>

		<linearGradient id="XMLID_79_" gradientUnits="userSpaceOnUse" x1="25.2" y1="124.9015" x2="25.2" y2="149.92" gradientTransform="matrix(1 0 0 -1 0 152)">
		<stop  offset="0" style="stop-color:#9DA7B2"/>
		<stop  offset="1" style="stop-color:#DFE3E8"/>
	</linearGradient>
	<polygon id="XMLID_1875_" class="st64" points="6.2,13.1 0,27 47,27 50.4,13.1 	"/>

		<linearGradient id="XMLID_80_" gradientUnits="userSpaceOnUse" x1="29.65" y1="124.9015" x2="29.65" y2="149.92" gradientTransform="matrix(1 0 0 -1 0 152)">
		<stop  offset="0" style="stop-color:#9DA7B2"/>
		<stop  offset="1" style="stop-color:#DFE3E8"/>
	</linearGradient>
	<polygon id="XMLID_1874_" class="st65" points="6.2,13.1 50.4,13.1 53.1,2.2 11.1,2.2 	"/>
	<g id="XMLID_1869_" class="st66">
		<polygon id="XMLID_1873_" class="st67" points="52.4,2.2 49.8,12.6 6.4,12.6 6.2,13.1 50.4,13.1 53.1,2.2 		"/>
		<polygon id="XMLID_1872_" class="st67" points="93.4,2.2 93.4,12.6 50.5,12.6 50.4,13.1 94,13.1 94,2.2 		"/>
		<polygon id="XMLID_1871_" class="st67" points="93.4,13.1 93.4,26.5 47.1,26.5 47,27 94,27 94,13.1 		"/>
		<polygon id="XMLID_1870_" class="st67" points="49.7,13.1 46.4,26.5 0.2,26.5 0,27 47,27 50.4,13.1 		"/>
	</g>

		<radialGradient id="XMLID_81_" cx="24.1554" cy="-257.077" r="32.5986" gradientTransform="matrix(1 0 0 -0.3516 0 -88.5824)" gradientUnits="userSpaceOnUse">
		<stop  offset="0" style="stop-color:#FFFFFF"/>
		<stop  offset="0.3602" style="stop-color:#D2D6D6"/>
		<stop  offset="1" style="stop-color:#98A0AC"/>
	</radialGradient>
	<ellipse id="XMLID_1868_" class="st68" cx="30.7" cy="6.3" rx="18.9" ry="6.3"/>

		<radialGradient id="XMLID_82_" cx="19.7649" cy="-261.9889" r="34.313" gradientTransform="matrix(1 0 0 -0.3644 0 -82.6545)" gradientUnits="userSpaceOnUse">
		<stop  offset="0" style="stop-color:#FFFFFF"/>
		<stop  offset="0.3602" style="stop-color:#C6CCD3"/>
		<stop  offset="1" style="stop-color:#868993"/>
	</radialGradient>
	<ellipse id="XMLID_1867_" class="st69" cx="26.6" cy="17.7" rx="19.9" ry="6.9"/>

		<radialGradient id="XMLID_83_" cx="66.4868" cy="-257.077" r="32.5986" gradientTransform="matrix(1 0 0 -0.3516 0 -88.5824)" gradientUnits="userSpaceOnUse">
		<stop  offset="0" style="stop-color:#FFFFFF"/>
		<stop  offset="0.3602" style="stop-color:#D2D6D6"/>
		<stop  offset="1" style="stop-color:#98A0AC"/>
	</radialGradient>
	<ellipse id="XMLID_1866_" class="st70" cx="73" cy="6.3" rx="18.9" ry="6.3"/>

		<radialGradient id="XMLID_84_" cx="65.1527" cy="-261.9889" r="34.313" gradientTransform="matrix(1 0 0 -0.3644 0 -82.6545)" gradientUnits="userSpaceOnUse">
		<stop  offset="0" style="stop-color:#FFFFFF"/>
		<stop  offset="0.3602" style="stop-color:#C6CCD3"/>
		<stop  offset="1" style="stop-color:#868993"/>
	</radialGradient>
	<ellipse id="XMLID_1865_" class="st71" cx="72" cy="17.7" rx="19.9" ry="6.9"/>

		<linearGradient id="XMLID_85_" gradientUnits="userSpaceOnUse" x1="-1735.3787" y1="124.9015" x2="-1735.3787" y2="149.92" gradientTransform="matrix(-1 0 0 -1 -1617.8787 152)">
		<stop  offset="0" style="stop-color:#9DA7B2"/>
		<stop  offset="1" style="stop-color:#DFE3E8"/>
	</linearGradient>
	<polygon id="XMLID_1864_" class="st72" points="137.6,13.1 141,27 94,27 94,13.1 	"/>

		<linearGradient id="XMLID_86_" gradientUnits="userSpaceOnUse" x1="-1733.6787" y1="124.9015" x2="-1733.6787" y2="149.92" gradientTransform="matrix(-1 0 0 -1 -1617.8787 152)">
		<stop  offset="0" style="stop-color:#9DA7B2"/>
		<stop  offset="1" style="stop-color:#DFE3E8"/>
	</linearGradient>
	<polygon id="XMLID_1863_" class="st73" points="137.6,13.1 94,13.1 94,2.2 134.9,2.2 	"/>

		<linearGradient id="XMLID_87_" gradientUnits="userSpaceOnUse" x1="-1780.6787" y1="124.9015" x2="-1780.6787" y2="149.92" gradientTransform="matrix(-1 0 0 -1 -1617.8787 152)">
		<stop  offset="0" style="stop-color:#9DA7B2"/>
		<stop  offset="1" style="stop-color:#DFE3E8"/>
	</linearGradient>
	<polygon id="XMLID_1862_" class="st74" points="181.8,13.1 188,27 141,27 137.6,13.1 	"/>

		<linearGradient id="XMLID_88_" gradientUnits="userSpaceOnUse" x1="-1776.2288" y1="124.9015" x2="-1776.2288" y2="149.92" gradientTransform="matrix(-1 0 0 -1 -1617.8787 152)">
		<stop  offset="0" style="stop-color:#9DA7B2"/>
		<stop  offset="1" style="stop-color:#DFE3E8"/>
	</linearGradient>
	<polygon id="XMLID_1861_" class="st75" points="181.8,13.1 137.6,13.1 134.9,2.2 176.9,2.2 	"/>
	<g id="XMLID_1856_" class="st66">
		<polygon id="XMLID_1860_" class="st67" points="135.6,2.2 138.2,12.6 181.6,12.6 181.8,13.1 137.6,13.1 134.9,2.2 		"/>
		<polygon id="XMLID_1859_" class="st67" points="94,12.6 137.5,12.6 137.6,13.1 94,13.1 		"/>
		<polygon id="XMLID_1858_" class="st67" points="94,26.5 140.9,26.5 141,27 94,27 		"/>
		<polygon id="XMLID_1857_" class="st67" points="138.3,13.1 141.6,26.5 187.8,26.5 188,27 141,27 137.6,13.1 		"/>
	</g>

		<radialGradient id="XMLID_89_" cx="-67.9588" cy="-257.077" r="32.5986" gradientTransform="matrix(1 0 0 -0.3516 218.8042 -88.5824)" gradientUnits="userSpaceOnUse">
		<stop  offset="0" style="stop-color:#FFFFFF"/>
		<stop  offset="0.3602" style="stop-color:#D2D6D6"/>
		<stop  offset="1" style="stop-color:#98A0AC"/>
	</radialGradient>
	<ellipse id="XMLID_1855_" class="st76" cx="157.3" cy="6.3" rx="18.9" ry="6.3"/>

		<radialGradient id="XMLID_90_" cx="-72.2801" cy="-261.9889" r="34.313" gradientTransform="matrix(1 0 0 -0.3644 226.8324 -82.6545)" gradientUnits="userSpaceOnUse">
		<stop  offset="0" style="stop-color:#FFFFFF"/>
		<stop  offset="0.3602" style="stop-color:#C6CCD3"/>
		<stop  offset="1" style="stop-color:#868993"/>
	</radialGradient>
	<ellipse id="XMLID_1854_" class="st77" cx="161.4" cy="17.7" rx="19.9" ry="6.9"/>

		<radialGradient id="XMLID_91_" cx="-26.3508" cy="-257.077" r="32.5986" gradientTransform="matrix(1 0 0 -0.3516 134.8648 -88.5824)" gradientUnits="userSpaceOnUse">
		<stop  offset="0" style="stop-color:#FFFFFF"/>
		<stop  offset="0.3602" style="stop-color:#D2D6D6"/>
		<stop  offset="1" style="stop-color:#98A0AC"/>
	</radialGradient>
	<ellipse id="XMLID_1853_" class="st78" cx="115" cy="6.3" rx="18.9" ry="6.3"/>

		<radialGradient id="XMLID_92_" cx="-27.668" cy="-261.9889" r="34.313" gradientTransform="matrix(1 0 0 -0.3644 136.8324 -82.6545)" gradientUnits="userSpaceOnUse">
		<stop  offset="0" style="stop-color:#FFFFFF"/>
		<stop  offset="0.3602" style="stop-color:#C6CCD3"/>
		<stop  offset="1" style="stop-color:#868993"/>
	</radialGradient>
	<ellipse id="XMLID_1852_" class="st79" cx="116" cy="17.7" rx="19.9" ry="6.9"/>
</g>
</svg>
