<?xml version="1.0" encoding="utf-8"?>
<!-- Generator: Adobe Illustrator 23.0.0, SVG Export Plug-In . SVG Version: 6.00 Build 0)  -->
<svg version="1.1" id="图层_1" xmlns="http://www.w3.org/2000/svg" xmlns:xlink="http://www.w3.org/1999/xlink" x="0px" y="0px"
	 viewBox="0 0 9 17" style="enable-background:new 0 0 9 17;" xml:space="preserve">
<style type="text/css">
	.st0{fill:#FF3E3E;}
</style>
<path class="st0" d="M4.5,13C2,13,0,11,0,8.5S2,4,4.5,4S9,6,9,8.5S7,13,4.5,13z M4.5,6C3.1,6,2,7.1,2,8.5C2,9.9,3.1,11,4.5,11
	C5.9,11,7,9.9,7,8.5C7,7.1,5.9,6,4.5,6z"/>
<rect x="-4" y="8" transform="matrix(2.766466e-03 -1 1 2.766466e-03 -4.0075 12.9784)" class="st0" width="17" height="1"/>
</svg>
