<?xml version="1.0" encoding="utf-8"?>
<!-- Generator: Adobe Illustrator 23.0.0, SVG Export Plug-In . SVG Version: 6.00 Build 0)  -->
<svg version="1.1" xmlns="http://www.w3.org/2000/svg" xmlns:xlink="http://www.w3.org/1999/xlink" x="0px" y="0px"
	 viewBox="0 0 25 40" style="enable-background:new 0 0 25 40;" xml:space="preserve">
<style type="text/css">
	.st0{display:none;}
	.st1{display:inline;fill:#FF3E3E;}
	.st2{fill:#FF3E3E;}
</style>
<g id="图层_1" class="st0">
	<rect x="5.7" y="21.6" transform="matrix(0.5524 -0.8335 0.8335 0.5524 -10.9379 24.7727)" class="st1" width="23.9" height="2"/>
	<rect x="10.5" class="st1" width="2" height="7"/>
	<rect x="10.5" y="30.8" class="st1" width="2" height="9.2"/>
	<rect x="10.7" y="3.9" transform="matrix(0.7071 -0.7071 0.7071 0.7071 -3.0551 10.7303)" class="st1" width="1.5" height="10.2"/>
	<rect x="6.3" y="8.3" transform="matrix(0.7071 -0.7071 0.7071 0.7071 -3.0551 10.7303)" class="st1" width="10.2" height="1.5"/>
</g>
<g id="图层_1_x5F_复制">
	<rect x="10.5" class="st2" width="2" height="7"/>
	<rect x="10.5" y="11" class="st2" width="2" height="29"/>
	<rect x="10.7" y="3.9" transform="matrix(0.7071 -0.7071 0.7071 0.7071 -3.0551 10.7303)" class="st2" width="1.5" height="10.2"/>
	<rect x="6.3" y="8.3" transform="matrix(0.7071 -0.7071 0.7071 0.7071 -3.0551 10.7303)" class="st2" width="10.2" height="1.5"/>
</g>
</svg>
