<?xml version="1.0" encoding="utf-8"?>
<!-- Generator: Adobe Illustrator 23.0.0, SVG Export Plug-In . SVG Version: 6.00 Build 0)  -->
<svg version="1.1" id="图层_1" xmlns="http://www.w3.org/2000/svg" xmlns:xlink="http://www.w3.org/1999/xlink" x="0px" y="0px"
	 viewBox="0 0 28 27" style="enable-background:new 0 0 28 27;" xml:space="preserve">
<style type="text/css">
	.st0{fill:#FF3E3E;}
</style>
<path class="st0" d="M28,24H0L14,0.3L28,24z M3.5,22h21L14,4.2L3.5,22z"/>
<rect x="11" y="19" class="st0" width="2" height="8"/>
<rect x="15" y="19" class="st0" width="2" height="8"/>
<rect x="8.4" y="5.8" transform="matrix(0.5586 -0.8294 0.8294 0.5586 -3.9624 12.1329)" class="st0" width="2" height="8"/>
<rect x="6.2" y="9.1" transform="matrix(0.5587 -0.8294 0.8294 0.5587 -7.7002 11.7432)" class="st0" width="2" height="8"/>
<rect x="15.2" y="8.8" transform="matrix(0.8295 -0.5585 0.5585 0.8295 -2.1965 12.3843)" class="st0" width="8" height="2"/>
<rect x="17.4" y="12.1" transform="matrix(0.8295 -0.5585 0.5585 0.8295 -3.6685 14.198)" class="st0" width="8" height="2"/>
</svg>
