<?xml version="1.0" encoding="utf-8"?>
<!-- Generator: Adobe Illustrator 23.0.0, SVG Export Plug-In . SVG Version: 6.00 Build 0)  -->
<svg version="1.1" id="图层_1" xmlns="http://www.w3.org/2000/svg" xmlns:xlink="http://www.w3.org/1999/xlink" x="0px" y="0px"
	 viewBox="0 0 18 10" style="enable-background:new 0 0 18 10;" xml:space="preserve">
<style type="text/css">
	.st0{fill:#FF3E3E;}
</style>
<path class="st0" d="M17,2H1C0.4,2,0,1.6,0,1s0.4-1,1-1h16c0.6,0,1,0.4,1,1S17.6,2,17,2z"/>
<path class="st0" d="M14,6H4C3.4,6,3,5.6,3,5s0.4-1,1-1h10c0.6,0,1,0.4,1,1S14.6,6,14,6z"/>
<path class="st0" d="M11,10H7c-0.6,0-1-0.4-1-1s0.4-1,1-1h4c0.6,0,1,0.4,1,1S11.6,10,11,10z"/>
</svg>
