<?xml version="1.0" encoding="utf-8"?>
<!-- Generator: Adobe Illustrator 23.0.0, SVG Export Plug-In . SVG Version: 6.00 Build 0)  -->
<svg version="1.1" id="图层_1" xmlns="http://www.w3.org/2000/svg" xmlns:xlink="http://www.w3.org/1999/xlink" x="0px" y="0px"
	 viewBox="0 0 19 19" style="enable-background:new 0 0 19 19;" xml:space="preserve">
<style type="text/css">
	.st0{fill:#FF3E3E;}
</style>
<path class="st0" d="M18,11H2c-0.6,0-1-0.4-1-1s0.4-1,1-1h16c0.6,0,1,0.4,1,1S18.6,11,18,11z"/>
<path class="st0" d="M15,15H5c-0.6,0-1-0.4-1-1s0.4-1,1-1h10c0.6,0,1,0.4,1,1S15.6,15,15,15z"/>
<path class="st0" d="M12,19H8c-0.6,0-1-0.4-1-1s0.4-1,1-1h4c0.6,0,1,0.4,1,1S12.6,19,12,19z"/>
<path class="st0" d="M10,10c-0.6,0-1-0.4-1-1V2H0V0h11v9C11,9.6,10.6,10,10,10z"/>
</svg>
