<?xml version="1.0" encoding="utf-8"?>
<!-- Generator: Adobe Illustrator 23.0.0, SVG Export Plug-In . SVG Version: 6.00 Build 0)  -->
<svg version="1.1" xmlns="http://www.w3.org/2000/svg" xmlns:xlink="http://www.w3.org/1999/xlink" x="0px" y="0px"
	 viewBox="0 0 25 40" style="enable-background:new 0 0 25 40;" xml:space="preserve">
<style type="text/css">
	.st0{display:none;}
	.st1{display:inline;fill:#FF3E3E;}
	.st2{fill:#FF3E3E;}
</style>
<g id="图层_1" class="st0">
	<path class="st1" d="M11.5,11.5c-1.8,0-3.3-1.5-3.3-3.3S9.7,5,11.5,5s3.3,1.5,3.3,3.3S13.3,11.5,11.5,11.5z M11.5,6.5
		c-1,0-1.8,0.8-1.8,1.8s0.8,1.8,1.8,1.8s1.8-0.8,1.8-1.8S12.5,6.5,11.5,6.5z"/>
	<path class="st1" d="M11.5,34.5c-1.8,0-3.3-1.5-3.3-3.3S9.7,28,11.5,28s3.3,1.5,3.3,3.3S13.3,34.5,11.5,34.5z M11.5,29.5
		c-1,0-1.8,0.8-1.8,1.8s0.8,1.8,1.8,1.8s1.8-0.8,1.8-1.8S12.5,29.5,11.5,29.5z"/>
	<rect x="8.5" y="20.1" transform="matrix(0.5524 -0.8335 0.8335 0.5524 -9.24 24.935)" class="st1" width="20.3" height="2"/>
	<rect x="10.5" class="st1" width="2" height="5.8"/>
	<rect x="10.5" y="33.8" class="st1" width="2" height="6.2"/>
</g>
<g id="图层_1_x5F_复制">
	<path class="st2" d="M11.5,11.5c-1.8,0-3.3-1.5-3.3-3.3S9.7,5,11.5,5s3.3,1.5,3.3,3.3S13.3,11.5,11.5,11.5z M11.5,6.5
		c-1,0-1.8,0.8-1.8,1.8s0.8,1.8,1.8,1.8s1.8-0.8,1.8-1.8S12.5,6.5,11.5,6.5z"/>
	<path class="st2" d="M11.5,34.5c-1.8,0-3.3-1.5-3.3-3.3S9.7,28,11.5,28s3.3,1.5,3.3,3.3S13.3,34.5,11.5,34.5z M11.5,29.5
		c-1,0-1.8,0.8-1.8,1.8s0.8,1.8,1.8,1.8s1.8-0.8,1.8-1.8S12.5,29.5,11.5,29.5z"/>
	<rect x="10.5" class="st2" width="2" height="5.8"/>
	<rect x="10.5" y="11" class="st2" width="2" height="18"/>
	<rect x="10.5" y="33.8" class="st2" width="2" height="6.2"/>
</g>
</svg>
