<?xml version="1.0" encoding="utf-8"?>
<!-- Generator: Adobe Illustrator 23.0.0, SVG Export Plug-In . SVG Version: 6.00 Build 0)  -->
<svg version="1.1" id="图层_1" xmlns="http://www.w3.org/2000/svg" xmlns:xlink="http://www.w3.org/1999/xlink" x="0px" y="0px"
	 viewBox="0 0 140 303" style="enable-background:new 0 0 140 303;" xml:space="preserve">
<style type="text/css">
	.st0{fill:#CDD1D3;}
	.st1{fill:url(#SVGID_1_);}
	.st2{fill:url(#SVGID_2_);}
	.st3{fill:url(#SVGID_3_);}
	.st4{fill:url(#SVGID_4_);}
	.st5{fill:url(#SVGID_5_);}
	.st6{fill:url(#SVGID_6_);}
</style>
<g>
	<path class="st0" d="M0,0v294h140V0H0z M136,290H4V4h132V290z"/>
</g>
<linearGradient id="SVGID_1_" gradientUnits="userSpaceOnUse" x1="70" y1="303" x2="70" y2="294">
	<stop  offset="0" style="stop-color:#CDD1D3"/>
	<stop  offset="0.2703" style="stop-color:#C8CCCF"/>
	<stop  offset="0.5993" style="stop-color:#B9BFC2"/>
	<stop  offset="0.9576" style="stop-color:#A0A9AD"/>
	<stop  offset="1" style="stop-color:#9DA6AA"/>
</linearGradient>
<polygon class="st1" points="131,294 110,294 30,294 1,294 0,294 0,303 26,303 28.2,298 111.8,298 114,303 140,303 140,294 "/>
<linearGradient id="SVGID_2_" gradientUnits="userSpaceOnUse" x1="70" y1="16" x2="70" y2="4">
	<stop  offset="0" style="stop-color:#8C9496"/>
	<stop  offset="1" style="stop-color:#535A5B"/>
</linearGradient>
<polygon class="st2" points="122,16 18,16 4,4 136,4 "/>
<linearGradient id="SVGID_3_" gradientUnits="userSpaceOnUse" x1="70" y1="-196" x2="70" y2="-208" gradientTransform="matrix(1 0 0 -1 0 82)">
	<stop  offset="0" style="stop-color:#697072"/>
	<stop  offset="0.2469" style="stop-color:#6E7577"/>
	<stop  offset="0.5475" style="stop-color:#7C8386"/>
	<stop  offset="0.8748" style="stop-color:#929B9F"/>
	<stop  offset="1" style="stop-color:#9DA6AA"/>
</linearGradient>
<polygon class="st3" points="122,278 18,278 4,290 136,290 "/>
<linearGradient id="SVGID_4_" gradientUnits="userSpaceOnUse" x1="76" y1="99" x2="76" y2="85" gradientTransform="matrix(0 -1 1 0 -81 223)">
	<stop  offset="0" style="stop-color:#CDD1D3"/>
	<stop  offset="0.2703" style="stop-color:#C8CCCF"/>
	<stop  offset="0.5993" style="stop-color:#B9BFC2"/>
	<stop  offset="0.9576" style="stop-color:#A0A9AD"/>
	<stop  offset="1" style="stop-color:#9DA6AA"/>
</linearGradient>
<polygon class="st4" points="18,16 18,278 4,290 4,4 "/>
<linearGradient id="SVGID_5_" gradientUnits="userSpaceOnUse" x1="76" y1="101" x2="76" y2="87" gradientTransform="matrix(4.489700e-11 -1 -1 -4.489700e-11 223 223)">
	<stop  offset="0" style="stop-color:#CDD1D3"/>
	<stop  offset="0.2703" style="stop-color:#C8CCCF"/>
	<stop  offset="0.5993" style="stop-color:#B9BFC2"/>
	<stop  offset="0.9576" style="stop-color:#A0A9AD"/>
	<stop  offset="1" style="stop-color:#9DA6AA"/>
</linearGradient>
<polygon class="st5" points="122,16 122,278 136,290 136,4 "/>
<linearGradient id="SVGID_6_" gradientUnits="userSpaceOnUse" x1="70" y1="278" x2="70" y2="16">
	<stop  offset="0" style="stop-color:#8C9496"/>
	<stop  offset="1" style="stop-color:#535A5B"/>
</linearGradient>
<rect x="18" y="16" class="st6" width="104" height="262"/>
</svg>
