<?xml version="1.0" encoding="utf-8"?>
<!-- Generator: Adobe Illustrator 23.0.0, SVG Export Plug-In . SVG Version: 6.00 Build 0)  -->
<svg version="1.1" id="图层_1" xmlns="http://www.w3.org/2000/svg" xmlns:xlink="http://www.w3.org/1999/xlink" x="0px" y="0px"
	 viewBox="0 0 135 128" style="enable-background:new 0 0 135 128;" xml:space="preserve">
<style type="text/css">
	.st0{fill:#D9D9D9;}
	.st1{fill:#BDBDBD;}
	.st2{fill:url(#SVGID_1_);}
	.st3{fill:url(#SVGID_2_);}
	.st4{fill:url(#SVGID_3_);}
	.st5{fill:url(#SVGID_4_);}
	.st6{fill:url(#SVGID_5_);}
	.st7{fill:url(#SVGID_6_);}
	.st8{fill:url(#SVGID_7_);}
	.st9{fill:url(#SVGID_8_);}
	.st10{fill:url(#SVGID_9_);}
	.st11{fill:url(#SVGID_10_);}
	.st12{fill:url(#SVGID_11_);}
	.st13{fill:url(#SVGID_12_);}
</style>
<rect y="5.4" class="st0" width="134.7" height="12.4"/>
<rect class="st1" width="134.7" height="5.4"/>
<linearGradient id="SVGID_1_" gradientUnits="userSpaceOnUse" x1="3.2629" y1="61.5322" x2="10.8775" y2="61.5322">
	<stop  offset="0" style="stop-color:#0E255A"/>
	<stop  offset="0.4091" style="stop-color:#1456BB"/>
	<stop  offset="0.6337" style="stop-color:#94CEFF"/>
	<stop  offset="1" style="stop-color:#0E255A"/>
</linearGradient>
<path class="st2" d="M7.1,8.5c-2.1,0-3.8,1.8-3.8,4.1v101.9h7.6V12.6C10.9,10.4,9.2,8.5,7.1,8.5z"/>
<linearGradient id="SVGID_2_" gradientUnits="userSpaceOnUse" x1="14.2629" y1="61.5322" x2="21.8775" y2="61.5322">
	<stop  offset="0" style="stop-color:#0E255A"/>
	<stop  offset="0.4091" style="stop-color:#1456BB"/>
	<stop  offset="0.6337" style="stop-color:#94CEFF"/>
	<stop  offset="1" style="stop-color:#0E255A"/>
</linearGradient>
<path class="st3" d="M18.1,8.5c-2.1,0-3.8,1.8-3.8,4.1v101.9h7.6V12.6C21.9,10.4,20.2,8.5,18.1,8.5z"/>
<linearGradient id="SVGID_3_" gradientUnits="userSpaceOnUse" x1="25.2629" y1="61.5322" x2="32.8775" y2="61.5322">
	<stop  offset="0" style="stop-color:#0E255A"/>
	<stop  offset="0.4091" style="stop-color:#1456BB"/>
	<stop  offset="0.6337" style="stop-color:#94CEFF"/>
	<stop  offset="1" style="stop-color:#0E255A"/>
</linearGradient>
<path class="st4" d="M29.1,8.5c-2.1,0-3.8,1.8-3.8,4.1v101.9h7.6V12.6C32.9,10.4,31.2,8.5,29.1,8.5z"/>
<linearGradient id="SVGID_4_" gradientUnits="userSpaceOnUse" x1="36.2629" y1="61.5322" x2="43.8775" y2="61.5322">
	<stop  offset="0" style="stop-color:#0E255A"/>
	<stop  offset="0.4091" style="stop-color:#1456BB"/>
	<stop  offset="0.6337" style="stop-color:#94CEFF"/>
	<stop  offset="1" style="stop-color:#0E255A"/>
</linearGradient>
<path class="st5" d="M40.1,8.5c-2.1,0-3.8,1.8-3.8,4.1v101.9h7.6V12.6C43.9,10.4,42.2,8.5,40.1,8.5z"/>
<linearGradient id="SVGID_5_" gradientUnits="userSpaceOnUse" x1="47.2629" y1="61.5322" x2="54.8775" y2="61.5322">
	<stop  offset="0" style="stop-color:#0E255A"/>
	<stop  offset="0.4091" style="stop-color:#1456BB"/>
	<stop  offset="0.6337" style="stop-color:#94CEFF"/>
	<stop  offset="1" style="stop-color:#0E255A"/>
</linearGradient>
<path class="st6" d="M51.1,8.5c-2.1,0-3.8,1.8-3.8,4.1v101.9h7.6V12.6C54.9,10.4,53.2,8.5,51.1,8.5z"/>
<linearGradient id="SVGID_6_" gradientUnits="userSpaceOnUse" x1="58.2629" y1="61.5322" x2="65.8775" y2="61.5322">
	<stop  offset="0" style="stop-color:#0E255A"/>
	<stop  offset="0.4091" style="stop-color:#1456BB"/>
	<stop  offset="0.6337" style="stop-color:#94CEFF"/>
	<stop  offset="1" style="stop-color:#0E255A"/>
</linearGradient>
<path class="st7" d="M62.1,8.5c-2.1,0-3.8,1.8-3.8,4.1v101.9h7.6V12.6C65.9,10.4,64.2,8.5,62.1,8.5z"/>
<linearGradient id="SVGID_7_" gradientUnits="userSpaceOnUse" x1="69.2629" y1="61.5322" x2="76.8775" y2="61.5322">
	<stop  offset="0" style="stop-color:#0E255A"/>
	<stop  offset="0.4091" style="stop-color:#1456BB"/>
	<stop  offset="0.6337" style="stop-color:#94CEFF"/>
	<stop  offset="1" style="stop-color:#0E255A"/>
</linearGradient>
<path class="st8" d="M73.1,8.5c-2.1,0-3.8,1.8-3.8,4.1v101.9h7.6V12.6C76.9,10.4,75.2,8.5,73.1,8.5z"/>
<linearGradient id="SVGID_8_" gradientUnits="userSpaceOnUse" x1="80.2629" y1="61.5322" x2="87.8775" y2="61.5322">
	<stop  offset="0" style="stop-color:#0E255A"/>
	<stop  offset="0.4091" style="stop-color:#1456BB"/>
	<stop  offset="0.6337" style="stop-color:#94CEFF"/>
	<stop  offset="1" style="stop-color:#0E255A"/>
</linearGradient>
<path class="st9" d="M84.1,8.5c-2.1,0-3.8,1.8-3.8,4.1v101.9h7.6V12.6C87.9,10.4,86.2,8.5,84.1,8.5z"/>
<linearGradient id="SVGID_9_" gradientUnits="userSpaceOnUse" x1="90.2629" y1="61.5322" x2="97.8775" y2="61.5322">
	<stop  offset="0" style="stop-color:#0E255A"/>
	<stop  offset="0.4091" style="stop-color:#1456BB"/>
	<stop  offset="0.6337" style="stop-color:#94CEFF"/>
	<stop  offset="1" style="stop-color:#0E255A"/>
</linearGradient>
<path class="st10" d="M94.1,8.5c-2.1,0-3.8,1.8-3.8,4.1v101.9h7.6V12.6C97.9,10.4,96.2,8.5,94.1,8.5z"/>
<linearGradient id="SVGID_10_" gradientUnits="userSpaceOnUse" x1="101.2629" y1="61.5322" x2="108.8775" y2="61.5322">
	<stop  offset="0" style="stop-color:#0E255A"/>
	<stop  offset="0.4091" style="stop-color:#1456BB"/>
	<stop  offset="0.6337" style="stop-color:#94CEFF"/>
	<stop  offset="1" style="stop-color:#0E255A"/>
</linearGradient>
<path class="st11" d="M105.1,8.5c-2.1,0-3.8,1.8-3.8,4.1v101.9h7.6V12.6C108.9,10.4,107.2,8.5,105.1,8.5z"/>
<linearGradient id="SVGID_11_" gradientUnits="userSpaceOnUse" x1="112.2629" y1="61.5322" x2="119.8775" y2="61.5322">
	<stop  offset="0" style="stop-color:#0E255A"/>
	<stop  offset="0.4091" style="stop-color:#1456BB"/>
	<stop  offset="0.6337" style="stop-color:#94CEFF"/>
	<stop  offset="1" style="stop-color:#0E255A"/>
</linearGradient>
<path class="st12" d="M116.1,8.5c-2.1,0-3.8,1.8-3.8,4.1v101.9h7.6V12.6C119.9,10.4,118.2,8.5,116.1,8.5z"/>
<linearGradient id="SVGID_12_" gradientUnits="userSpaceOnUse" x1="123.2629" y1="61.5322" x2="130.8775" y2="61.5322">
	<stop  offset="0" style="stop-color:#0E255A"/>
	<stop  offset="0.4091" style="stop-color:#1456BB"/>
	<stop  offset="0.6337" style="stop-color:#94CEFF"/>
	<stop  offset="1" style="stop-color:#0E255A"/>
</linearGradient>
<path class="st13" d="M127.1,8.5c-2.1,0-3.8,1.8-3.8,4.1v101.9h7.6V12.6C130.9,10.4,129.2,8.5,127.1,8.5z"/>
<rect y="115.4" class="st0" width="134.7" height="12.4"/>
<rect y="110" class="st1" width="134.7" height="5.4"/>
</svg>
