<?xml version="1.0" encoding="utf-8"?>
<!-- Generator: Adobe Illustrator 23.0.1, SVG Export Plug-In . SVG Version: 6.00 Build 0)  -->
<svg version="1.1" xmlns="http://www.w3.org/2000/svg" xmlns:xlink="http://www.w3.org/1999/xlink" x="0px" y="0px"
	 viewBox="0 0 73 65" style="enable-background:new 0 0 73 65;" xml:space="preserve">
<style type="text/css">
	.st0{fill:#D8D9D9;}
	.st1{fill:url(#SVGID_1_);}
	.st2{fill:#FFFFFF;}
	.st3{fill:url(#SVGID_2_);}
	.st4{fill:#E8E8E8;}
	.st5{fill:url(#SVGID_3_);}
	.st6{fill:url(#SVGID_4_);}
	.st7{font-family:'OPPOSans-M';}
	.st8{font-size:10px;}
	.st9{font-family:'OPPOSans-H';}
	.st10{font-size:19px;}
</style>
<g id="图层_3">
	<path class="st0" d="M73,60H0V3c0-1.7,1.3-3,3-3h67c1.7,0,3,1.3,3,3V60z"/>
	<linearGradient id="SVGID_1_" gradientUnits="userSpaceOnUse" x1="36.5" y1="65" x2="36.5" y2="5">
		<stop  offset="0" style="stop-color:#D8D9D9"/>
		<stop  offset="1" style="stop-color:#B1B1B2"/>
	</linearGradient>
	<path class="st1" d="M70,65H3c-1.7,0-3-1.3-3-3V8c0-1.7,1.3-3,3-3h67c1.7,0,3,1.3,3,3v54C73,63.7,71.7,65,70,65z"/>
	<path class="st2" d="M66,54H7c-1.7,0-3-1.3-3-3V12c0-0.6,0.4-1,1-1h61c1.7,0,3,1.3,3,3v37C69,52.7,67.7,54,66,54z"/>
	<linearGradient id="SVGID_2_" gradientUnits="userSpaceOnUse" x1="36.5" y1="52" x2="36.5" y2="9">
		<stop  offset="0" style="stop-color:#929CAD"/>
		<stop  offset="1" style="stop-color:#697284"/>
	</linearGradient>
	<path class="st3" d="M66,52H7c-1.7,0-3-1.3-3-3V10c0-0.6,0.4-1,1-1h61c1.7,0,3,1.3,3,3v37C69,50.7,67.7,52,66,52z"/>
	<g>
		<rect x="8" y="57" class="st2" width="9" height="4"/>
		<rect x="8" y="58" class="st4" width="9" height="4"/>
	</g>
	<g>
		<rect x="24" y="57" class="st2" width="9" height="4"/>
		<rect x="24" y="58" class="st4" width="9" height="4"/>
	</g>
	<g>
		<rect x="40" y="57" class="st2" width="9" height="4"/>
		<rect x="40" y="58" class="st4" width="9" height="4"/>
	</g>
	<g>
		<rect x="56" y="57" class="st2" width="9" height="4"/>
		<rect x="56" y="58" class="st4" width="9" height="4"/>
	</g>
</g>
<g id="图层_1">
	<path class="st0" d="M73,60H0V3c0-1.7,1.3-3,3-3h67c1.7,0,3,1.3,3,3V60z"/>
	<linearGradient id="SVGID_3_" gradientUnits="userSpaceOnUse" x1="36.5" y1="65" x2="36.5" y2="5">
		<stop  offset="0" style="stop-color:#D8D9D9"/>
		<stop  offset="1" style="stop-color:#B1B1B2"/>
	</linearGradient>
	<path class="st5" d="M70,65H3c-1.7,0-3-1.3-3-3V8c0-1.7,1.3-3,3-3h67c1.7,0,3,1.3,3,3v54C73,63.7,71.7,65,70,65z"/>
	<path class="st2" d="M66,54H7c-1.7,0-3-1.3-3-3V12c0-0.6,0.4-1,1-1h61c1.7,0,3,1.3,3,3v37C69,52.7,67.7,54,66,54z"/>
	<linearGradient id="SVGID_4_" gradientUnits="userSpaceOnUse" x1="36.5" y1="52" x2="36.5" y2="9">
		<stop  offset="0" style="stop-color:#0084E9"/>
		<stop  offset="1" style="stop-color:#0052AA"/>
	</linearGradient>
	<path class="st6" d="M66,52H7c-1.7,0-3-1.3-3-3V10c0-0.6,0.4-1,1-1h61c1.7,0,3,1.3,3,3v37C69,50.7,67.7,52,66,52z"/>
	<g>
		<rect x="8" y="57" class="st2" width="9" height="4"/>
		<rect x="8" y="58" class="st4" width="9" height="4"/>
	</g>
	<g>
		<rect x="24" y="57" class="st2" width="9" height="4"/>
		<rect x="24" y="58" class="st4" width="9" height="4"/>
	</g>
	<g>
		<rect x="40" y="57" class="st2" width="9" height="4"/>
		<rect x="40" y="58" class="st4" width="9" height="4"/>
	</g>
	<g>
		<rect x="56" y="57" class="st2" width="9" height="4"/>
		<rect x="56" y="58" class="st4" width="9" height="4"/>
	</g>
</g>
<g id="图层_2">
	<text transform="matrix(1 0 0 1 10 22)" class="st2 st7 st8">温度</text>
	<text transform="matrix(1 0 0 1 15 44)" class="st2 st9 st10">26.5</text>
	<text transform="matrix(1 0 0 1 54 22)" class="st2 st7 st8">℃</text>
</g>
</svg>
