<?xml version="1.0" encoding="utf-8"?>
<!-- Generator: Adobe Illustrator 23.0.0, SVG Export Plug-In . SVG Version: 6.00 Build 0)  -->
<svg version="1.1" xmlns="http://www.w3.org/2000/svg" xmlns:xlink="http://www.w3.org/1999/xlink" x="0px" y="0px"
	 viewBox="0 0 85 58" style="enable-background:new 0 0 85 58;" xml:space="preserve">
<style type="text/css">
	.st0{fill:#D8D9D9;}
	.st1{fill:url(#SVGID_1_);}
	.st2{fill:#FFFFFF;}
	.st3{fill:url(#SVGID_2_);}
	.st4{opacity:0.3;}
	.st5{fill:#E8E8E8;}
	.st6{fill:url(#SVGID_3_);}
	.st7{fill:url(#SVGID_4_);}
	.st8{font-family:'OPPOSans-M';}
	.st9{font-size:10px;}
	.st10{font-family:'OPPOSans-H';}
	.st11{font-size:19px;}
</style>

<g id="图层_3">
	<path class="st0" d="M85,53H0V3c0-1.7,1.3-3,3-3h79c1.7,0,3,1.3,3,3V53z"/>
	<linearGradient id="SVGID_1_" gradientUnits="userSpaceOnUse" x1="42.5" y1="58" x2="42.5" y2="5">
		<stop  offset="0" style="stop-color:#D8D9D9"/>
		<stop  offset="1" style="stop-color:#B1B1B2"/>
	</linearGradient>
	<path class="st1" d="M82,58H3c-1.7,0-3-1.3-3-3V8c0-1.7,1.3-3,3-3h79c1.7,0,3,1.3,3,3v47C85,56.7,83.7,58,82,58z"/>
	<path class="st2" d="M60,54H7c-1.7,0-3-1.3-3-3V12c0-0.6,0.4-1,1-1h55c1.7,0,3,1.3,3,3v37C63,52.7,61.7,54,60,54z"/>
	<linearGradient id="SVGID_2_" gradientUnits="userSpaceOnUse" x1="33.5" y1="52" x2="33.5" y2="9">
		<stop  offset="0" style="stop-color:#929CAD"/>
		<stop  offset="1" style="stop-color:#697284"/>
	</linearGradient>
	<path class="st3" d="M60,52H7c-1.7,0-3-1.3-3-3V10c0-0.6,0.4-1,1-1h55c1.7,0,3,1.3,3,3v37C63,50.7,61.7,52,60,52z"/>
	<rect x="68" y="10" class="st4" width="17" height="43"/>
	<rect x="69" y="11" class="st2" width="15" height="5"/>
	<rect x="69" y="12" class="st5" width="15" height="5"/>
	<rect x="69" y="18" class="st2" width="15" height="5"/>
	<rect x="69" y="19" class="st5" width="15" height="5"/>
	<rect x="69" y="25" class="st2" width="15" height="5"/>
	<rect x="69" y="26" class="st5" width="15" height="5"/>
	<rect x="69" y="32" class="st2" width="15" height="5"/>
	<rect x="69" y="33" class="st5" width="15" height="5"/>
	<rect x="69" y="39" class="st2" width="15" height="5"/>
	<rect x="69" y="40" class="st5" width="15" height="5"/>
	<rect x="69" y="46" class="st2" width="15" height="5"/>
	<rect x="69" y="47" class="st5" width="15" height="5"/>
</g>
<g id="图层_1">
	<path class="st0" d="M85,53H0V3c0-1.7,1.3-3,3-3h79c1.7,0,3,1.3,3,3V53z"/>
	<linearGradient id="SVGID_3_" gradientUnits="userSpaceOnUse" x1="42.5" y1="58" x2="42.5" y2="5">
		<stop  offset="0" style="stop-color:#D8D9D9"/>
		<stop  offset="1" style="stop-color:#B1B1B2"/>
	</linearGradient>
	<path class="st6" d="M82,58H3c-1.7,0-3-1.3-3-3V8c0-1.7,1.3-3,3-3h79c1.7,0,3,1.3,3,3v47C85,56.7,83.7,58,82,58z"/>
	<path class="st2" d="M60,54H7c-1.7,0-3-1.3-3-3V12c0-0.6,0.4-1,1-1h55c1.7,0,3,1.3,3,3v37C63,52.7,61.7,54,60,54z"/>
	<linearGradient id="SVGID_4_" gradientUnits="userSpaceOnUse" x1="33.5" y1="52" x2="33.5" y2="9">
		<stop  offset="0" style="stop-color:#00BF81"/>
		<stop  offset="1" style="stop-color:#007A7F"/>
	</linearGradient>
	<path class="st7" d="M60,52H7c-1.7,0-3-1.3-3-3V10c0-0.6,0.4-1,1-1h55c1.7,0,3,1.3,3,3v37C63,50.7,61.7,52,60,52z"/>
	<rect x="68" y="10" class="st4" width="17" height="43"/>
	<rect x="69" y="11" class="st2" width="15" height="5"/>
	<rect x="69" y="12" class="st5" width="15" height="5"/>
	<rect x="69" y="18" class="st2" width="15" height="5"/>
	<rect x="69" y="19" class="st5" width="15" height="5"/>
	<rect x="69" y="25" class="st2" width="15" height="5"/>
	<rect x="69" y="26" class="st5" width="15" height="5"/>
	<rect x="69" y="32" class="st2" width="15" height="5"/>
	<rect x="69" y="33" class="st5" width="15" height="5"/>
	<rect x="69" y="39" class="st2" width="15" height="5"/>
	<rect x="69" y="40" class="st5" width="15" height="5"/>
	<rect x="69" y="46" class="st2" width="15" height="5"/>
	<rect x="69" y="47" class="st5" width="15" height="5"/>
</g>
<g id="图层_2">
	<text transform="matrix(1 0 0 1 8 22)" class="st2 st8 st9">风速</text>
	<text transform="matrix(1 0 0 1 27 44)" class="st2 st10 st11">3</text>
	<text transform="matrix(1 0 0 1 49 22)" class="st2 st8 st9">档</text>
</g>
</svg>
